<svg xmlns="http://www.w3.org/2000/svg" xmlns:xlink="http://www.w3.org/1999/xlink" width="1080" zoomAndPan="magnify" viewBox="0 0 810 809.999993" height="1080" preserveAspectRatio="xMidYMid meet" version="1.0"><path fill="#ed1d24" d="M 404.902344 809.863281 C 409.496094 809.863281 414.066406 809.761719 418.625 809.609375 L 391.175781 809.609375 C 395.734375 809.761719 400.300781 809.863281 404.902344 809.863281 " fill-opacity="1" fill-rule="nonzero"/><path fill="#ed1d24" d="M 27.015625 259.027344 C 9.535156 304.285156 -0.0820312 353.46875 -0.0820312 404.902344 C -0.0820312 456.238281 9.5 505.335938 26.925781 550.539062 L 782.859375 550.539062 C 800.28125 505.335938 809.863281 456.238281 809.863281 404.902344 C 809.863281 353.46875 800.257812 304.285156 782.773438 259.027344 L 27.015625 259.027344 " fill-opacity="1" fill-rule="nonzero"/><path fill="#100f0d" d="M 404.902344 -0.0820312 C 232.667969 -0.0820312 85.570312 107.445312 27.015625 259.027344 L 782.773438 259.027344 C 724.210938 107.445312 577.113281 -0.0820312 404.902344 -0.0820312 " fill-opacity="1" fill-rule="nonzero"/><path fill="#f7ed08" d="M 391.175781 809.609375 L 418.625 809.609375 C 584.988281 804.058594 725.921875 698.175781 782.859375 550.539062 L 26.925781 550.539062 C 83.863281 698.175781 224.800781 804.058594 391.175781 809.609375 " fill-opacity="1" fill-rule="nonzero"/></svg>