<svg xmlns="http://www.w3.org/2000/svg" xmlns:xlink="http://www.w3.org/1999/xlink" width="1080" zoomAndPan="magnify" viewBox="0 0 810 809.999993" height="1080" preserveAspectRatio="xMidYMid meet" version="1.0"><defs><clipPath id="cbb534a1eb"><path d="M 46.179688 20.300781 L 763.8125 20.300781 L 763.8125 789.800781 L 46.179688 789.800781 Z M 46.179688 20.300781 " clip-rule="nonzero"/></clipPath></defs><path fill="#ffce33" d="M 48.980469 227.296875 L 48.980469 581.160156 L 404.996094 786.773438 L 761.011719 581.160156 L 761.011719 227.296875 L 759.476562 228.21875 L 406.378906 24.300781 L 51.902344 228.988281 Z M 48.980469 227.296875 " fill-opacity="1" fill-rule="nonzero"/><path fill="#000000" d="M 599.535156 522.105469 L 696.113281 618.683594 L 695.5 619.144531 L 645.058594 568.703125 L 568.316406 491.964844 L 471.125 394.769531 L 471.738281 394.308594 Z M 599.535156 522.105469 " fill-opacity="1" fill-rule="nonzero"/><path fill="#000000" d="M 584.15625 522.105469 L 686.425781 624.375 L 685.65625 624.683594 L 645.058594 584.082031 L 552.9375 491.964844 L 461.28125 400.308594 L 462.050781 400 Z M 584.15625 522.105469 " fill-opacity="1" fill-rule="nonzero"/><path fill="#000000" d="M 568.78125 522.105469 L 614.914062 568.089844 L 676.738281 629.910156 L 675.96875 630.371094 L 645.058594 599.308594 L 537.5625 491.964844 L 460.976562 415.222656 L 451.59375 405.996094 L 452.363281 405.535156 Z M 568.78125 522.105469 " fill-opacity="1" fill-rule="nonzero"/><path fill="#000000" d="M 553.554688 522.105469 L 614.914062 583.46875 L 666.894531 635.601562 L 666.28125 635.910156 L 522.335938 491.964844 L 460.976562 430.601562 L 441.90625 411.535156 L 442.519531 411.226562 Z M 553.554688 522.105469 " fill-opacity="1" fill-rule="nonzero"/><path fill="#000000" d="M 538.175781 522.105469 L 657.207031 641.136719 L 656.589844 641.597656 L 645.058594 630.0625 L 506.957031 491.964844 L 460.976562 445.980469 L 432.21875 417.222656 L 432.832031 416.761719 Z M 538.175781 522.105469 " fill-opacity="1" fill-rule="nonzero"/><path fill="#000000" d="M 522.796875 522.105469 L 647.519531 646.828125 L 646.75 647.132812 L 645.058594 645.441406 L 491.578125 491.964844 L 460.976562 461.359375 L 422.375 422.761719 L 423.144531 422.453125 L 430.832031 429.988281 Z M 522.796875 522.105469 " fill-opacity="1" fill-rule="nonzero"/><path fill="#000000" d="M 507.417969 522.105469 L 614.914062 629.449219 L 637.828125 652.363281 L 637.0625 652.824219 L 476.199219 491.964844 L 460.976562 476.585938 L 412.6875 428.449219 L 413.453125 427.988281 L 430.832031 445.367188 Z M 507.417969 522.105469 " fill-opacity="1" fill-rule="nonzero"/><path fill="#000000" d="M 492.195312 522.105469 L 614.914062 644.828125 L 627.988281 658.054688 L 627.371094 658.359375 L 460.976562 491.964844 L 404.996094 436.140625 L 404.996094 435.0625 L 430.832031 460.746094 Z M 492.195312 522.105469 " fill-opacity="1" fill-rule="nonzero"/><path fill="#000000" d="M 630.140625 522.105469 L 715.644531 607.457031 L 714.875 607.917969 L 645.058594 537.945312 L 598.921875 491.964844 L 490.5 383.542969 L 491.269531 383.082031 Z M 630.140625 522.105469 " fill-opacity="1" fill-rule="nonzero"/><path fill="#000000" d="M 645.058594 369.242188 L 597.539062 321.722656 L 598.152344 321.414062 L 614.914062 338.023438 L 761.011719 484.273438 L 761.011719 485.351562 Z M 645.058594 369.242188 " fill-opacity="1" fill-rule="nonzero"/><path fill="#000000" d="M 752.402344 491.964844 L 645.058594 384.621094 L 587.847656 327.414062 L 588.464844 326.949219 L 599.535156 338.023438 L 761.011719 499.5 L 761.011719 500.574219 Z M 752.402344 491.964844 " fill-opacity="1" fill-rule="nonzero"/><path fill="#000000" d="M 737.023438 491.964844 L 645.058594 399.847656 L 578.007812 332.949219 L 578.777344 332.640625 L 584.15625 338.023438 L 614.914062 368.628906 L 761.011719 514.878906 L 761.011719 515.953125 Z M 737.023438 491.964844 " fill-opacity="1" fill-rule="nonzero"/><path fill="#000000" d="M 721.796875 491.964844 L 645.058594 415.222656 L 568.316406 338.640625 L 569.085938 338.175781 L 753.015625 522.105469 L 761.011719 530.257812 L 761.011719 531.332031 Z M 721.796875 491.964844 " fill-opacity="1" fill-rule="nonzero"/><path fill="#000000" d="M 706.417969 491.964844 L 645.058594 430.601562 L 558.628906 344.175781 L 559.246094 343.867188 L 614.914062 399.382812 L 737.636719 522.105469 L 761.011719 545.636719 L 761.011719 546.710938 Z M 706.417969 491.964844 " fill-opacity="1" fill-rule="nonzero"/><path fill="#000000" d="M 691.039062 491.964844 L 645.058594 445.980469 L 548.941406 349.863281 L 549.554688 349.402344 L 761.011719 560.859375 L 761.011719 561.9375 Z M 691.039062 491.964844 " fill-opacity="1" fill-rule="nonzero"/><path fill="#000000" d="M 675.660156 491.964844 L 645.058594 461.359375 L 539.097656 355.402344 L 539.867188 355.09375 L 614.914062 429.988281 L 706.878906 522.105469 L 761.011719 576.238281 L 761.011719 577.316406 Z M 675.660156 491.964844 " fill-opacity="1" fill-rule="nonzero"/><path fill="#000000" d="M 660.28125 491.964844 L 645.058594 476.585938 L 529.410156 361.089844 L 530.179688 360.628906 L 614.914062 445.367188 L 691.65625 522.105469 L 754.554688 585.003906 L 753.785156 585.464844 Z M 660.28125 491.964844 " fill-opacity="1" fill-rule="nonzero"/><path fill="#000000" d="M 519.722656 366.628906 L 520.335938 366.320312 L 614.914062 460.746094 L 676.277344 522.105469 L 744.710938 590.695312 L 744.097656 591.003906 Z M 519.722656 366.628906 " fill-opacity="1" fill-rule="nonzero"/><path fill="#000000" d="M 629.679688 491.964844 L 510.03125 372.316406 L 510.648438 371.855469 L 614.914062 476.125 L 660.898438 522.105469 L 735.023438 596.230469 L 734.40625 596.691406 Z M 629.679688 491.964844 " fill-opacity="1" fill-rule="nonzero"/><path fill="#000000" d="M 461.4375 522.105469 L 608.609375 669.28125 L 607.839844 669.585938 L 404.996094 466.742188 L 404.996094 465.667969 Z M 461.4375 522.105469 " fill-opacity="1" fill-rule="nonzero"/><path fill="#000000" d="M 446.058594 522.105469 L 598.921875 674.816406 L 598.152344 675.277344 L 460.976562 537.945312 L 414.839844 491.964844 L 404.996094 482.121094 L 404.996094 481.046875 Z M 446.058594 522.105469 " fill-opacity="1" fill-rule="nonzero"/><path fill="#000000" d="M 461.4375 706.1875 L 491.886719 736.636719 L 491.117188 737.101562 L 430.21875 676.046875 L 404.996094 650.824219 L 404.996094 649.75 Z M 461.4375 706.1875 " fill-opacity="1" fill-rule="nonzero"/><path fill="#000000" d="M 446.058594 706.1875 L 482.199219 742.328125 L 481.429688 742.636719 L 404.996094 666.203125 L 404.996094 665.128906 Z M 446.058594 706.1875 " fill-opacity="1" fill-rule="nonzero"/><path fill="#000000" d="M 645.058594 353.863281 L 607.226562 316.1875 L 607.996094 315.722656 L 630.140625 338.023438 L 761.011719 468.894531 L 761.011719 469.972656 Z M 645.058594 353.863281 " fill-opacity="1" fill-rule="nonzero"/><path fill="#000000" d="M 714.875 253.902344 L 761.011719 300.039062 L 761.011719 301.113281 L 714.261719 254.363281 Z M 714.875 253.902344 " fill-opacity="1" fill-rule="nonzero"/><path fill="#000000" d="M 752.402344 307.882812 L 704.574219 259.898438 L 705.1875 259.59375 L 761.011719 315.417969 L 761.011719 316.492188 Z M 752.402344 307.882812 " fill-opacity="1" fill-rule="nonzero"/><path fill="#000000" d="M 737.023438 307.882812 L 694.730469 265.589844 L 695.5 265.128906 L 761.011719 330.796875 L 761.011719 331.871094 Z M 737.023438 307.882812 " fill-opacity="1" fill-rule="nonzero"/><path fill="#000000" d="M 721.796875 307.882812 L 685.042969 271.125 L 685.8125 270.820312 L 753.015625 338.023438 L 761.011719 346.175781 L 761.011719 347.25 Z M 721.796875 307.882812 " fill-opacity="1" fill-rule="nonzero"/><path fill="#000000" d="M 706.417969 307.882812 L 675.351562 276.816406 L 675.96875 276.355469 L 761.011719 361.398438 L 761.011719 362.628906 Z M 706.417969 307.882812 " fill-opacity="1" fill-rule="nonzero"/><path fill="#000000" d="M 691.039062 307.882812 L 665.664062 282.351562 L 666.28125 282.046875 L 761.011719 376.777344 L 761.011719 377.855469 Z M 691.039062 307.882812 " fill-opacity="1" fill-rule="nonzero"/><path fill="#000000" d="M 675.660156 307.882812 L 655.824219 288.042969 L 656.589844 287.582031 L 706.878906 338.023438 L 761.011719 392.15625 L 761.011719 393.234375 Z M 675.660156 307.882812 " fill-opacity="1" fill-rule="nonzero"/><path fill="#000000" d="M 660.28125 307.882812 L 646.132812 293.734375 L 646.902344 293.273438 L 691.65625 338.023438 L 761.011719 407.535156 L 761.011719 408.613281 Z M 660.28125 307.882812 " fill-opacity="1" fill-rule="nonzero"/><path fill="#000000" d="M 636.445312 299.269531 L 637.0625 298.808594 L 676.277344 338.023438 L 761.011719 422.914062 L 761.011719 423.992188 L 645.058594 307.882812 Z M 636.445312 299.269531 " fill-opacity="1" fill-rule="nonzero"/><path fill="#000000" d="M 629.679688 307.882812 L 626.757812 304.960938 L 627.371094 304.5 L 660.898438 338.023438 L 761.011719 438.140625 L 761.011719 439.214844 Z M 629.679688 307.882812 " fill-opacity="1" fill-rule="nonzero"/><path fill="#000000" d="M 724.71875 248.367188 L 761.011719 284.8125 L 761.011719 285.890625 L 723.949219 248.671875 Z M 724.71875 248.367188 " fill-opacity="1" fill-rule="nonzero"/><path fill="#000000" d="M 753.785156 231.449219 L 761.011719 238.675781 L 761.011719 239.753906 L 753.167969 231.910156 Z M 753.785156 231.449219 " fill-opacity="1" fill-rule="nonzero"/><path fill="#000000" d="M 744.097656 237.140625 L 761.011719 254.054688 L 761.011719 255.132812 L 743.480469 237.445312 Z M 744.097656 237.140625 " fill-opacity="1" fill-rule="nonzero"/><path fill="#000000" d="M 734.40625 242.675781 L 761.011719 269.433594 L 761.011719 270.511719 L 733.636719 243.136719 Z M 734.40625 242.675781 " fill-opacity="1" fill-rule="nonzero"/><path fill="#000000" d="M 430.832031 706.1875 L 472.355469 747.863281 L 471.738281 748.328125 L 460.976562 737.40625 L 404.996094 681.582031 L 404.996094 680.507812 Z M 430.832031 706.1875 " fill-opacity="1" fill-rule="nonzero"/><path fill="#000000" d="M 415.453125 706.1875 L 430.832031 721.566406 L 462.667969 753.554688 L 462.050781 753.863281 L 460.976562 752.785156 L 404.996094 696.960938 L 404.996094 695.886719 Z M 415.453125 706.1875 " fill-opacity="1" fill-rule="nonzero"/><path fill="#000000" d="M 452.976562 759.089844 L 452.210938 759.550781 L 404.996094 712.339844 L 404.996094 711.109375 Z M 452.976562 759.089844 " fill-opacity="1" fill-rule="nonzero"/><path fill="#000000" d="M 443.289062 764.78125 L 442.519531 765.089844 L 404.996094 727.566406 L 404.996094 726.488281 Z M 443.289062 764.78125 " fill-opacity="1" fill-rule="nonzero"/><path fill="#000000" d="M 433.445312 770.316406 L 432.832031 770.777344 L 404.996094 742.945312 L 404.996094 741.867188 L 430.832031 767.550781 Z M 433.445312 770.316406 " fill-opacity="1" fill-rule="nonzero"/><path fill="#000000" d="M 423.144531 776.316406 L 404.996094 758.324219 L 404.996094 757.246094 L 423.757812 776.007812 Z M 423.144531 776.316406 " fill-opacity="1" fill-rule="nonzero"/><path fill="#000000" d="M 413.300781 782.003906 L 404.996094 773.699219 L 404.996094 772.625 L 414.070312 781.542969 Z M 413.300781 782.003906 " fill-opacity="1" fill-rule="nonzero"/><path fill="#000000" d="M 430.832031 522.105469 L 589.078125 680.507812 L 588.464844 680.8125 L 583.695312 676.046875 L 460.976562 553.324219 L 404.996094 497.5 L 404.996094 496.421875 Z M 430.832031 522.105469 " fill-opacity="1" fill-rule="nonzero"/><path fill="#000000" d="M 415.453125 522.105469 L 579.390625 686.042969 L 578.777344 686.503906 L 568.316406 676.046875 L 460.976562 568.703125 L 404.996094 512.878906 L 404.996094 511.800781 Z M 415.453125 522.105469 " fill-opacity="1" fill-rule="nonzero"/><path fill="#000000" d="M 569.703125 691.734375 L 568.933594 692.195312 L 552.9375 676.046875 L 460.976562 584.082031 L 404.996094 528.105469 L 404.996094 527.027344 Z M 569.703125 691.734375 " fill-opacity="1" fill-rule="nonzero"/><path fill="#000000" d="M 560.011719 697.269531 L 559.246094 697.730469 L 537.5625 676.046875 L 460.976562 599.308594 L 404.996094 543.484375 L 404.996094 542.40625 L 430.832031 568.089844 Z M 560.011719 697.269531 " fill-opacity="1" fill-rule="nonzero"/><path fill="#000000" d="M 550.171875 702.960938 L 549.554688 703.421875 L 522.335938 676.046875 L 460.976562 614.6875 L 404.996094 558.859375 L 404.996094 557.785156 L 430.832031 583.46875 Z M 550.171875 702.960938 " fill-opacity="1" fill-rule="nonzero"/><path fill="#000000" d="M 538.175781 706.1875 L 540.484375 708.496094 L 539.867188 708.957031 L 506.957031 676.046875 L 460.976562 630.0625 L 404.996094 574.238281 L 404.996094 573.164062 L 430.832031 598.84375 Z M 538.175781 706.1875 " fill-opacity="1" fill-rule="nonzero"/><path fill="#000000" d="M 522.796875 706.1875 L 530.792969 714.1875 L 530.023438 714.648438 L 491.578125 676.046875 L 460.976562 645.441406 L 404.996094 589.464844 L 404.996094 588.386719 Z M 522.796875 706.1875 " fill-opacity="1" fill-rule="nonzero"/><path fill="#000000" d="M 507.417969 706.1875 L 521.105469 719.875 L 520.335938 720.183594 L 476.199219 676.046875 L 460.976562 660.667969 L 404.996094 604.84375 L 404.996094 603.765625 L 430.832031 629.449219 Z M 507.417969 706.1875 " fill-opacity="1" fill-rule="nonzero"/><path fill="#000000" d="M 492.195312 706.1875 L 511.261719 725.410156 L 510.648438 725.875 L 460.976562 676.046875 L 404.996094 620.222656 L 404.996094 619.144531 L 430.832031 644.828125 Z M 492.195312 706.1875 " fill-opacity="1" fill-rule="nonzero"/><path fill="#000000" d="M 476.816406 706.1875 L 501.574219 731.101562 L 500.960938 731.410156 L 445.597656 676.046875 L 404.996094 635.601562 L 404.996094 634.523438 L 430.832031 660.207031 Z M 476.816406 706.1875 " fill-opacity="1" fill-rule="nonzero"/><path fill="#000000" d="M 614.300781 491.964844 L 500.191406 377.855469 L 500.960938 377.546875 L 725.335938 601.921875 L 724.566406 602.230469 Z M 614.300781 491.964844 " fill-opacity="1" fill-rule="nonzero"/><path fill="#000000" d="M 614.914062 522.105469 L 705.804688 613.148438 L 705.1875 613.457031 L 645.058594 553.324219 L 583.695312 491.964844 L 480.8125 389.082031 L 481.429688 388.773438 Z M 614.914062 522.105469 " fill-opacity="1" fill-rule="nonzero"/><path fill="#000000" d="M 476.816406 522.105469 L 614.914062 660.207031 L 618.296875 663.589844 L 617.683594 664.050781 L 445.597656 491.964844 L 404.996094 451.519531 L 404.996094 450.441406 L 430.832031 476.125 Z M 476.816406 522.105469 " fill-opacity="1" fill-rule="nonzero"/><path fill="#000000" d="M 617.683594 310.035156 L 645.519531 338.023438 L 761.011719 453.515625 L 761.011719 454.59375 L 616.914062 310.496094 Z M 617.683594 310.035156 " fill-opacity="1" fill-rule="nonzero"/><path fill="#fefefe" d="M 71.894531 373.703125 L 217.839844 457.976562 L 217.839844 373.703125 L 71.894531 289.425781 Z M 71.894531 373.703125 " fill-opacity="1" fill-rule="nonzero"/><path fill="#000000" d="M 535.101562 358.015625 L 536.332031 357.246094 L 536.332031 480.890625 L 551.402344 497.039062 L 567.703125 460.898438 L 584.003906 478.277344 L 600.304688 442.136719 L 616.605469 459.515625 L 629.679688 430.601562 L 629.679688 303.269531 L 628.140625 304.191406 L 274.894531 100.117188 L 181.699219 153.941406 Z M 535.101562 358.015625 " fill-opacity="1" fill-rule="nonzero"/><g clip-path="url(#cbb534a1eb)"><path fill="#000000" d="M 71.894531 560.859375 L 165.089844 614.6875 L 165.089844 560.859375 L 71.894531 507.035156 Z M 69.433594 375.238281 L 69.433594 285.121094 L 220.605469 372.316406 L 220.605469 462.4375 Z M 74.507812 293.886719 L 74.507812 372.316406 L 215.378906 453.671875 L 215.378906 375.238281 Z M 46.367188 228.835938 L 46.519531 582.699219 L 404.996094 789.695312 L 763.628906 582.699219 L 763.628906 225.914062 L 407.457031 20.300781 Z M 627.066406 307.882812 L 627.066406 429.988281 L 615.839844 454.902344 L 599.535156 437.523438 L 583.234375 473.664062 L 566.933594 456.285156 L 550.632812 492.425781 L 538.945312 479.816406 L 538.945312 358.632812 Z M 534.945312 354.941406 L 186.773438 153.941406 L 274.894531 103.039062 L 622.914062 304.035156 Z M 755.785156 227.296875 L 627.988281 301.113281 L 279.8125 99.960938 L 407.609375 26.144531 Z M 407.609375 434.292969 L 533.871094 361.398438 L 533.871094 481.96875 L 552.324219 501.652344 L 568.625 465.511719 L 584.925781 482.890625 L 601.226562 446.75 L 617.53125 464.128906 L 632.292969 431.21875 L 632.292969 304.804688 L 758.550781 231.757812 L 758.550781 579.777344 L 407.609375 782.3125 Z M 404.996094 429.835938 L 56.667969 228.679688 L 181.390625 156.710938 L 529.71875 357.863281 Z M 51.59375 231.757812 L 402.535156 434.449219 L 402.535156 782.3125 L 51.59375 579.777344 Z M 313.800781 668.203125 L 340.40625 635.140625 L 367.011719 698.960938 L 354.09375 691.425781 L 354.09375 716.953125 L 326.71875 701.265625 L 326.71875 675.894531 Z M 313.800781 668.203125 " fill-opacity="1" fill-rule="nonzero"/></g></svg>