<svg xmlns="http://www.w3.org/2000/svg" xmlns:xlink="http://www.w3.org/1999/xlink" width="1080" zoomAndPan="magnify" viewBox="0 0 810 809.999993" height="1080" preserveAspectRatio="xMidYMid meet" version="1.0"><path fill="#000000" d="M 75.785156 625.640625 C 76.109375 626.238281 76.476562 626.878906 76.933594 627.40625 C 77.875 628.554688 78.835938 629.703125 79.753906 630.824219 C 80.625 631.882812 81.792969 632.476562 83.078125 632.707031 C 83.628906 633.304688 84.246094 633.808594 85.117188 634.265625 C 176.3125 680.199219 269.867188 721.152344 365.484375 757.011719 C 366.769531 757.519531 367.914062 757.5625 368.902344 757.378906 C 370.140625 757.886719 371.582031 758.023438 373.28125 757.519531 C 490.976562 722.917969 607.683594 684.949219 723.199219 643.605469 C 727.535156 642.046875 728.589844 637.710938 727.441406 634.335938 C 727.03125 501.910156 726.664062 369.527344 726.523438 237.144531 C 726.523438 216.703125 725.746094 196.191406 726.617188 175.820312 C 726.753906 172.90625 725.332031 171 723.382812 169.992188 C 722.695312 169.394531 721.78125 168.9375 720.703125 168.660156 C 710.84375 166.070312 701.011719 163.523438 691.175781 160.976562 C 689.640625 160.5625 688.21875 160.632812 687.027344 161.136719 C 684.296875 161.363281 681.800781 163.15625 681.019531 166.023438 C 680.835938 166.617188 680.699219 167.214844 680.515625 167.789062 C 595.464844 136.839844 508.785156 110.453125 422.429688 83.242188 C 422.199219 81.960938 421.652344 80.71875 420.734375 79.78125 C 420.78125 77.761719 419.746094 75.808594 417.179688 74.664062 C 398.839844 66.449219 380.109375 59.335938 360.921875 53.371094 C 358.46875 52.59375 356.429688 53.1875 354.964844 54.472656 C 349.460938 56.378906 343.890625 58.304688 338.386719 60.210938 C 336.027344 61.035156 334.238281 62.894531 333.644531 65.140625 C 333.460938 65.371094 333.320312 65.554688 333.183594 65.832031 C 332.335938 67.78125 331.464844 69.800781 330.59375 71.796875 C 330.226562 71.886719 329.90625 72.023438 329.539062 72.207031 C 255.082031 110.042969 180.550781 147.921875 106.070312 185.753906 C 104.625 182.746094 101.53125 180.84375 98.046875 181.808594 C 97.566406 181.921875 97.105469 182.152344 96.648438 182.382812 C 96.601562 182.425781 96.558594 182.425781 96.464844 182.425781 C 90.414062 184.582031 84.292969 186.671875 78.238281 188.804688 C 74.367188 185.9375 67.167969 187.726562 66.9375 194.058594 C 65.128906 242.421875 68.589844 291.566406 69.460938 339.929688 C 70.902344 415.484375 72.371094 491.058594 73.679688 566.609375 C 74 584.824219 75.238281 603.25 74.550781 621.441406 C 74.457031 623.1875 74.960938 624.585938 75.785156 625.640625 " fill-opacity="1" fill-rule="nonzero"/><path fill="#000000" d="M 95.640625 624.21875 C 95.6875 615.84375 96.695312 607.492188 98.78125 599.28125 C 95.226562 597.742188 91.855469 596 88.671875 594.046875 C 88.671875 602.675781 88.53125 611.234375 88.257812 619.765625 C 88.625 620.203125 89.039062 620.707031 89.449219 621.167969 C 89.585938 621.351562 89.726562 621.578125 89.863281 621.761719 C 90.550781 621.855469 91.261719 622.085938 91.996094 622.453125 C 93.234375 623.027344 94.402344 623.621094 95.640625 624.21875 Z M 97.726562 214.476562 C 97.886719 209.683594 98.183594 204.910156 98.6875 200.160156 C 97.773438 199.425781 97.0625 198.488281 96.558594 197.386719 C 96.464844 197.246094 96.328125 197.109375 96.234375 196.972656 C 91.054688 198.808594 85.898438 200.574219 80.738281 202.410156 C 80.648438 202.410156 80.554688 202.410156 80.464844 202.457031 C 80.417969 209.292969 80.507812 216.175781 80.691406 223.058594 C 86.355469 220.191406 92.039062 217.347656 97.726562 214.476562 Z M 101.621094 593.222656 C 99.972656 573.171875 101.027344 552.476562 100.75 532.5625 C 100.0625 487.820312 99.605469 443.152344 99.238281 398.4375 C 98.828125 353.167969 98.503906 307.855469 98.414062 262.566406 C 98.414062 249.398438 97.609375 235.722656 97.65625 222.1875 C 92.039062 224.964844 86.492188 227.738281 80.921875 230.585938 C 81.152344 236.6875 81.335938 242.789062 81.472656 248.894531 C 82.800781 324.445312 84.246094 400.019531 85.667969 475.570312 C 86.402344 512.164062 88.488281 549.242188 88.714844 586.0625 C 88.808594 586.109375 88.898438 586.109375 88.992188 586.15625 C 92.820312 588.839844 97.152344 591.132812 101.621094 593.222656 Z M 124.984375 602.261719 C 123.425781 472.65625 116.5 343.144531 114.875 213.539062 C 111.410156 215.257812 107.949219 217.023438 104.488281 218.769531 C 104.257812 234.003906 105.246094 249.488281 105.246094 264.355469 C 105.335938 309.074219 105.703125 353.765625 106.070312 398.4375 C 106.484375 443.75 106.941406 489.0625 107.582031 534.328125 C 107.90625 554.699219 106.804688 575.855469 108.753906 596.273438 C 114.140625 598.429688 119.640625 600.335938 124.984375 602.261719 Z M 155.359375 614.191406 C 154.992188 596.871094 154.855469 579.503906 154.53125 562.226562 C 153.132812 487.59375 150.75 413.003906 148.800781 338.394531 C 147.5625 291.75 146.875 244.96875 145.9375 198.347656 C 137.820312 202.273438 129.707031 206.242188 121.613281 210.234375 C 123.195312 341.628906 130.300781 472.953125 131.859375 604.351562 C 131.859375 604.488281 131.816406 604.625 131.769531 604.761719 C 133.214844 605.3125 134.679688 605.839844 136.054688 606.390625 C 142.476562 609.054688 148.9375 611.601562 155.359375 614.191406 Z M 162.144531 616.921875 C 169.984375 620.066406 177.871094 623.230469 185.6875 626.375 C 185.253906 607.90625 185.207031 589.390625 184.886719 570.921875 C 183.554688 491.5625 181.46875 412.246094 179.726562 332.910156 C 178.605469 283.191406 178.398438 233.222656 177.046875 183.527344 C 168.882812 187.359375 160.769531 191.191406 152.722656 195.070312 C 153.089844 212.894531 153.226562 230.722656 153.546875 248.527344 C 154.945312 323.160156 157.328125 397.746094 159.277344 472.382812 C 160.5625 520.378906 161.226562 568.511719 162.234375 616.53125 C 162.234375 616.671875 162.144531 616.738281 162.144531 616.921875 Z M 192.542969 629.058594 C 200.359375 632.203125 208.199219 635.300781 216.085938 638.398438 C 215.445312 618.851562 215.535156 599.1875 215.261719 579.640625 C 213.976562 495.578125 212.210938 411.46875 210.605469 327.402344 C 209.667969 274.703125 209.917969 221.726562 208.152344 169.027344 C 199.992188 172.769531 191.898438 176.507812 183.785156 180.292969 C 184.335938 199.3125 184.335938 218.355469 184.65625 237.375 C 185.960938 316.691406 188.070312 396.050781 189.835938 475.386719 C 190.984375 526.390625 191.121094 577.644531 192.585938 628.648438 C 192.585938 628.828125 192.542969 628.921875 192.542969 629.058594 Z M 246.414062 650.488281 C 245.636719 629.839844 245.863281 609.054688 245.589844 588.359375 C 244.421875 499.546875 242.90625 410.734375 241.53125 321.921875 C 240.683594 266.351562 241.441406 210.417969 239.261719 154.941406 C 231.125 158.589844 223.007812 162.238281 214.894531 165.929688 C 215.582031 185.9375 215.445312 206.148438 215.71875 226.15625 C 216.980469 310.265625 218.769531 394.328125 220.371094 478.390625 C 221.359375 532.46875 220.992188 586.796875 222.964844 640.828125 C 222.964844 640.921875 222.917969 640.988281 222.917969 641.082031 C 224.820312 641.863281 226.792969 642.640625 228.695312 643.421875 C 234.609375 645.738281 240.5 648.078125 246.414062 650.488281 Z M 253.292969 653.265625 C 261.132812 656.40625 268.972656 659.597656 276.789062 662.785156 C 275.851562 640.96875 276.261719 618.941406 275.988281 597.101562 C 274.839844 503.515625 273.648438 409.953125 272.480469 316.414062 C 271.746094 258.160156 272.984375 199.382812 270.417969 141.175781 C 262.277344 144.730469 254.117188 148.289062 246.003906 151.933594 C 246.828125 172.90625 246.550781 194.011719 246.828125 214.984375 C 248.019531 303.796875 249.507812 392.585938 250.886719 481.445312 C 251.800781 538.480469 250.886719 595.953125 253.339844 652.988281 C 253.339844 653.082031 253.292969 653.171875 253.292969 653.265625 Z M 283.621094 665.5625 C 291.460938 668.773438 299.300781 671.917969 307.140625 675.015625 C 306.042969 651.980469 306.59375 628.785156 306.316406 605.796875 C 305.261719 507.53125 304.367188 409.242188 303.359375 310.953125 C 302.761719 250.085938 304.503906 188.574219 301.570312 127.777344 C 293.386719 131.242188 285.226562 134.707031 277.109375 138.261719 C 278.027344 160.058594 277.660156 181.96875 277.890625 203.765625 C 279.035156 297.347656 280.273438 390.910156 281.398438 484.449219 C 282.175781 544.492188 280.800781 605.128906 283.667969 665.125 C 283.714844 665.308594 283.621094 665.445312 283.621094 665.5625 Z M 334.238281 730.492188 C 334.101562 717.871094 334.054688 705.277344 334.054688 692.65625 C 296.574219 678.753906 259.574219 662.878906 222.550781 648.308594 C 191.394531 635.988281 160.289062 623.621094 129.246094 611.003906 C 122.484375 608.226562 114.828125 605.726562 107.308594 602.835938 C 106.574219 603.066406 105.75 603.066406 104.992188 602.882812 C 103.066406 611.050781 102.242188 619.261719 102.515625 627.636719 C 178.191406 665.402344 255.46875 699.769531 334.238281 730.492188 Z M 334.054688 685.363281 C 334.054688 674.507812 334.101562 663.65625 334.101562 652.804688 C 333.964844 540.566406 333.917969 428.332031 333.917969 316.140625 C 333.964844 249.167969 331.050781 181.234375 333.871094 114.238281 C 325.320312 117.75 316.746094 121.351562 308.21875 124.953125 C 309.273438 147.414062 308.769531 170.128906 309 192.589844 C 310.054688 290.878906 310.96875 389.167969 311.957031 487.453125 C 312.597656 550.546875 310.695312 614.285156 314.066406 677.285156 C 314.066406 677.46875 314.019531 677.5625 314.019531 677.699219 C 320.667969 680.335938 327.363281 682.859375 334.054688 685.363281 Z M 334.191406 106.761719 C 334.332031 104.214844 334.375 101.644531 334.515625 99.144531 C 334.191406 94.484375 334.011719 89.851562 334.054688 85.238281 C 258.128906 123.808594 182.179688 162.421875 106.207031 201.035156 C 105.933594 201.171875 105.65625 201.21875 105.382812 201.355469 C 105.0625 204.542969 104.855469 207.734375 104.695312 211.015625 C 159.460938 183.710938 214.894531 157.902344 270.96875 133.511719 C 271.5625 132.847656 272.480469 132.433594 273.421875 132.433594 C 282.726562 128.417969 292.058594 124.449219 301.34375 120.480469 C 301.664062 117.980469 304.460938 117.292969 306.363281 118.347656 C 315.601562 114.46875 324.910156 110.59375 334.191406 106.761719 Z M 341.757812 103.664062 C 346.367188 101.78125 350.90625 99.878906 355.46875 97.996094 C 355.421875 88.292969 355.328125 78.539062 355.328125 68.789062 C 351.914062 69.960938 348.542969 71.152344 345.175781 72.347656 C 345.082031 72.484375 345.082031 72.574219 345.035156 72.714844 C 343.660156 75.765625 342.355469 78.816406 341.023438 81.820312 C 341.023438 81.867188 340.980469 81.914062 340.980469 81.914062 C 340.839844 87.121094 340.933594 92.304688 341.253906 97.445312 C 341.300781 97.722656 341.390625 97.996094 341.390625 98.316406 C 341.390625 98.640625 341.390625 98.914062 341.34375 99.234375 C 341.484375 100.703125 341.621094 102.148438 341.757812 103.664062 Z M 360.625 694.835938 C 360.488281 682.449219 360.394531 669.988281 360.257812 657.601562 C 358.746094 473.503906 356.246094 289.433594 355.511719 105.339844 C 350.628906 107.3125 345.816406 109.308594 340.933594 111.328125 C 340.246094 134.75 340.980469 158.359375 340.886719 181.738281 C 340.566406 350.117188 338.847656 518.589844 340.566406 686.945312 C 340.703125 686.992188 340.886719 686.945312 341.070312 687.035156 C 345.128906 688.78125 349.1875 690.546875 353.289062 692.335938 C 355.695312 693.207031 358.148438 694.011719 360.625 694.835938 Z M 360.921875 740.746094 C 360.878906 728.128906 360.785156 715.53125 360.695312 702.914062 C 357.554688 701.535156 354.414062 700.230469 351.273438 698.851562 C 347.71875 697.613281 344.164062 696.351562 340.65625 695.066406 C 340.796875 707.753906 340.886719 720.417969 341.070312 733.128906 C 347.671875 735.699219 354.320312 738.199219 360.921875 740.746094 Z M 398.703125 106.53125 C 398.703125 98.179688 398.703125 89.851562 398.703125 81.5 C 396.089844 80.398438 393.5 79.414062 390.863281 78.402344 C 390.726562 81.316406 390.585938 84.230469 390.449219 87.167969 C 390.359375 89.714844 390.585938 92.582031 389.210938 94.851562 C 388.179688 96.597656 386.621094 97.375 384.628906 97.492188 C 383.25 97.605469 372.683594 96.871094 375.734375 100.796875 C 375.960938 101.117188 376.054688 101.414062 376.191406 101.757812 C 383.617188 103.664062 391.136719 105.246094 398.703125 106.53125 Z M 371.902344 743.660156 C 381.96875 740.699219 391.984375 737.695312 402.027344 734.6875 C 401.292969 722.140625 400.007812 709.703125 398.105469 697.269531 C 393.179688 698.070312 388.273438 699.035156 383.390625 700.113281 C 379.515625 701.261719 375.59375 702.316406 371.675781 703.464844 C 371.765625 716.863281 371.859375 730.261719 371.902344 743.660156 Z M 460.371094 716.953125 C 460.507812 704.335938 460.644531 691.695312 460.828125 679.03125 C 442.421875 683.847656 424.105469 688.734375 405.808594 693.804688 C 407.804688 706.5625 409.269531 719.410156 410.074219 732.257812 C 426.855469 727.253906 443.613281 722.09375 460.371094 716.953125 Z M 509.886719 445.605469 C 509.933594 445.054688 509.933594 444.484375 509.933594 443.933594 C 508.097656 443.886719 506.289062 443.839844 504.453125 443.75 C 504.453125 444.390625 504.5 444.964844 504.546875 445.605469 C 506.335938 445.835938 508.097656 445.835938 509.886719 445.605469 Z M 512.203125 425.828125 C 512.203125 425.601562 512.25 425.324219 512.25 425.09375 C 510.023438 424.820312 507.734375 424.730469 505.464844 424.820312 C 505.464844 425.1875 505.507812 425.554688 505.554688 425.921875 C 507.734375 425.875 509.980469 425.875 512.203125 425.828125 Z M 512.109375 700.640625 C 512.386719 688.964844 512.660156 677.285156 512.9375 665.5625 C 498.308594 669.324219 483.640625 673.085938 469.035156 676.917969 C 468.898438 689.375 468.761719 701.859375 468.578125 714.363281 C 483.113281 709.84375 497.578125 705.230469 512.109375 700.640625 Z M 527.242188 205.507812 C 527.289062 201.445312 527.242188 197.339844 527.289062 193.277344 C 526.554688 193.277344 525.820312 193.277344 525.109375 193.277344 C 523.230469 193.277344 522.175781 191.992188 521.921875 190.59375 C 521.714844 190.179688 521.648438 189.675781 521.648438 189.125 C 521.808594 183.390625 521.714844 177.746094 521.371094 172.035156 C 521.328125 170.957031 521.671875 170.128906 522.265625 169.578125 C 477.035156 161.960938 432.859375 150.328125 389.761719 134.707031 C 389.671875 145.96875 389.625 157.257812 389.535156 168.523438 C 435.175781 181.738281 481.09375 194.105469 527.242188 205.507812 Z M 527.425781 335.800781 C 527.378906 327.632812 527.332031 319.511719 527.289062 311.390625 C 527.195312 311.390625 527.105469 311.4375 527.011719 311.4375 C 481.644531 307.214844 436.460938 301.59375 391.457031 294.710938 C 390.082031 303.335938 389.027344 311.894531 388.316406 320.519531 C 388.660156 320.476562 388.984375 320.429688 389.394531 320.476562 C 435.222656 327.21875 481.230469 332.289062 527.425781 335.800781 Z M 527.515625 358.171875 C 527.515625 352.984375 527.46875 347.777344 527.46875 342.636719 C 480.726562 339.128906 434.234375 333.917969 387.859375 327.082031 C 387.308594 335.113281 387.035156 343.144531 387.035156 351.148438 C 433.824219 350.738281 480.40625 352.984375 526.964844 357.988281 C 527.148438 357.988281 527.332031 358.125 527.515625 358.171875 Z M 528.066406 437.324219 C 528.066406 435.671875 528.019531 434.089844 528.019531 432.4375 C 514.265625 432.621094 500.511719 432.851562 486.710938 433.035156 C 486.800781 433.996094 486.871094 434.890625 486.871094 435.855469 C 500.601562 436.910156 514.3125 437.417969 528.066406 437.324219 Z M 528.339844 163.707031 C 528.296875 162.191406 528.296875 160.675781 528.296875 159.230469 C 479.28125 145.144531 429.351562 133.925781 383.160156 111.671875 C 383.160156 116.144531 383.160156 120.574219 383.160156 125.046875 C 430.269531 142.78125 478.640625 155.675781 528.339844 163.707031 Z M 528.386719 487.867188 C 528.339844 479.722656 528.296875 471.601562 528.25 463.433594 C 484.003906 462.699219 439.738281 462.035156 395.492188 461.300781 C 395.105469 470.042969 393.589844 481.078125 393.546875 490.964844 C 438.5 488.878906 483.433594 487.820312 528.386719 487.867188 Z M 528.523438 510.304688 C 528.523438 505.097656 528.480469 499.914062 528.433594 494.703125 C 483.546875 494.660156 438.683594 495.714844 393.820312 497.800781 C 394.003906 499.636719 394.234375 501.359375 394.597656 503.011719 C 398.976562 522.328125 420.6875 516.316406 436.09375 515.8125 C 466.972656 514.710938 497.761719 512.851562 528.523438 510.304688 Z M 383.480469 641.265625 C 431.988281 628.464844 480.5 615.660156 529.007812 602.882812 C 529.007812 589.300781 528.890625 575.761719 528.847656 562.226562 C 528.777344 547.175781 528.640625 532.195312 528.570312 517.144531 C 503.742188 519.183594 478.917969 520.835938 453.996094 521.9375 C 434.578125 522.789062 410.164062 527.214844 391.136719 522.558594 C 389.992188 522.28125 389.027344 521.296875 388.730469 520.148438 C 383.847656 501.542969 388.363281 478.070312 388.777344 458.867188 C 388.824219 457.148438 389.855469 456.136719 391.136719 455.726562 C 391.6875 454.96875 392.535156 454.417969 393.773438 454.417969 C 438.59375 455.152344 483.386719 455.863281 528.203125 456.597656 C 528.160156 452.445312 528.160156 448.292969 528.113281 444.160156 C 524.328125 444.160156 520.546875 444.160156 516.765625 444.117188 C 516.765625 445.515625 516.671875 446.9375 516.488281 448.40625 C 516.351562 449.53125 515.800781 450.539062 514.953125 451.136719 C 514.585938 451.527344 514.082031 451.871094 513.394531 451.984375 C 509.199219 452.949219 505.050781 452.949219 500.855469 451.984375 C 499.640625 451.734375 498.953125 451 498.632812 450.082031 C 498.21875 449.574219 497.851562 448.980469 497.761719 448.175781 C 497.621094 446.570312 497.621094 444.964844 497.621094 443.425781 C 492.304688 443.105469 486.960938 442.785156 481.644531 442.28125 C 479.742188 442.140625 478.734375 440.789062 478.457031 439.320312 C 478.367188 439 478.273438 438.722656 478.230469 438.355469 C 478 436.40625 478.183594 434.480469 478.550781 432.527344 C 478.6875 431.613281 479.191406 431.015625 479.742188 430.601562 C 479.742188 430.441406 479.742188 430.257812 479.695312 430.027344 C 479.625 429.476562 479.832031 428.972656 480.039062 428.515625 C 480.453125 427.273438 481.460938 426.242188 483.15625 426.242188 C 488.339844 426.152344 493.542969 426.105469 498.722656 426.011719 C 498.675781 424.683594 498.675781 423.421875 498.859375 422.042969 C 498.90625 421.539062 499.042969 421.082031 499.273438 420.621094 C 499.6875 419.453125 500.695312 418.441406 502.230469 418.257812 C 507.023438 417.707031 511.699219 417.984375 516.445312 418.855469 C 517.726562 419.085938 518.390625 419.910156 518.714844 420.804688 C 519.035156 421.308594 519.261719 421.90625 519.21875 422.734375 C 519.171875 423.71875 519.082031 424.730469 519.035156 425.738281 C 522.015625 425.691406 525.019531 425.644531 527.976562 425.601562 C 527.835938 405.320312 527.699219 385.035156 527.5625 364.777344 C 527.332031 364.777344 527.195312 364.871094 526.964844 364.824219 C 479.28125 359.730469 431.484375 357.4375 383.527344 357.988281 C 381.074219 358.03125 380.066406 355.945312 380.339844 354.0625 C 380.25 353.789062 380.15625 353.558594 380.15625 353.261719 C 380.066406 332.910156 381.691406 312.8125 384.902344 292.761719 C 383.617188 290.671875 385.476562 286.976562 388.777344 287.460938 C 434.671875 294.574219 480.726562 300.285156 527.011719 304.621094 C 527.105469 304.621094 527.195312 304.667969 527.289062 304.667969 C 527.148438 273.96875 527.148438 243.25 527.242188 212.574219 C 479.625 200.804688 432.308594 188.09375 385.222656 174.398438 C 383.34375 173.867188 382.703125 172.261719 382.886719 170.773438 C 382.792969 170.449219 382.703125 170.128906 382.703125 169.761719 C 382.792969 157.210938 382.886719 144.730469 382.929688 132.25 C 381.53125 131.699219 380.066406 131.195312 378.597656 130.644531 C 376.648438 129.863281 376.054688 127.914062 376.421875 126.308594 C 376.421875 126.078125 376.328125 125.894531 376.328125 125.664062 C 376.328125 120.066406 376.328125 114.421875 376.328125 108.800781 C 373.050781 107.976562 369.773438 107.082031 366.492188 106.117188 C 366.675781 120.753906 366.816406 135.347656 366.953125 149.917969 C 368.441406 331.511719 370.871094 513.082031 371.628906 694.609375 C 373.554688 694.101562 375.457031 693.644531 377.382812 693.207031 C 378.414062 677.238281 379.46875 661.292969 380.570312 645.371094 C 380.617188 644.683594 380.84375 644.15625 381.164062 643.652344 C 381.394531 642.597656 382.058594 641.632812 383.480469 641.265625 Z M 530.015625 652.757812 C 530.015625 649.433594 530.015625 646.105469 530.015625 642.78125 C 529.558594 642.734375 529.097656 642.6875 528.640625 642.597656 C 528.523438 642.597656 528.480469 642.503906 528.339844 642.503906 C 528.019531 642.414062 527.746094 642.273438 527.425781 642.136719 C 527.378906 642.089844 527.332031 642.089844 527.289062 642.046875 C 526.460938 641.496094 525.820312 640.621094 525.867188 639.316406 C 526.09375 633.488281 526.277344 627.613281 526.460938 621.761719 C 526.460938 621.671875 526.507812 621.625 526.554688 621.535156 C 525.820312 619.722656 526.691406 617.199219 529.050781 616.738281 C 529.050781 614.46875 529.050781 612.242188 529.050781 609.949219 C 481.78125 622.40625 434.488281 634.839844 387.265625 647.34375 C 386.253906 662.027344 385.292969 676.6875 384.304688 691.328125 C 432.632812 677.652344 481.324219 665.171875 530.015625 652.757812 Z M 539.140625 168.316406 C 539.140625 168.066406 539.140625 167.789062 539.140625 167.515625 C 539.09375 165.792969 539.046875 164.050781 538.957031 162.328125 C 537.671875 161.960938 536.386719 161.546875 535.128906 161.179688 C 535.171875 163.476562 535.171875 165.792969 535.171875 168.066406 C 536.480469 168.15625 537.808594 168.203125 539.140625 168.316406 Z M 538.957031 650.488281 C 539.09375 648.078125 539.183594 645.691406 539.277344 643.285156 C 538.453125 643.328125 537.671875 643.328125 536.847656 643.328125 C 536.847656 645.875 536.847656 648.421875 536.847656 650.992188 C 536.894531 650.992188 536.894531 650.992188 536.894531 650.992188 C 537.582031 650.855469 538.269531 650.671875 538.957031 650.488281 Z M 541.042969 616.921875 C 540.996094 598.933594 540.90625 580.925781 540.8125 562.914062 C 540.261719 439.6875 539.4375 316.507812 539.140625 193.324219 C 537.488281 193.324219 535.816406 193.324219 534.117188 193.324219 C 534.027344 211.058594 534.257812 228.839844 534.347656 246.574219 C 534.851562 369.941406 536.527344 493.351562 535.90625 616.691406 C 537.625 616.738281 539.300781 616.785156 541.042969 616.921875 Z M 528.523438 186.441406 C 533.660156 186.488281 538.816406 186.488281 543.953125 186.535156 C 543.953125 182.839844 543.816406 179.101562 543.539062 175.453125 C 538.496094 175.085938 533.386719 174.785156 528.296875 174.464844 C 528.523438 178.457031 528.570312 182.425781 528.523438 186.441406 Z M 544.046875 635.941406 C 544.089844 631.972656 544.089844 628.003906 544.089844 624.035156 C 540.492188 623.621094 536.894531 623.4375 533.246094 623.507812 C 533.109375 627.730469 532.972656 632.019531 532.835938 636.308594 C 536.570312 636.722656 540.355469 636.585938 544.046875 635.941406 Z M 560.621094 178.433594 C 557.203125 177.148438 553.742188 175.863281 550.328125 174.582031 C 550.691406 179.328125 550.875 184.125 550.785156 188.917969 C 550.785156 189.035156 550.738281 189.082031 550.738281 189.171875 C 550.875 191.007812 549.84375 192.910156 547.507812 192.910156 C 547.09375 192.910156 546.679688 192.910156 546.316406 192.910156 C 546.199219 192.957031 546.109375 193.050781 545.972656 193.09375 C 546.0625 211.058594 546.152344 229.070312 546.246094 247.035156 C 546.773438 370.535156 547.550781 493.992188 547.875 617.472656 C 549.476562 617.609375 550.921875 618.667969 550.921875 620.707031 C 550.921875 626.652344 550.921875 632.570312 550.875 638.488281 C 550.875 638.765625 550.785156 638.992188 550.738281 639.222656 C 550.738281 639.316406 550.691406 639.359375 550.691406 639.40625 C 550.648438 639.589844 550.648438 639.820312 550.554688 640.003906 C 550.28125 640.921875 549.617188 641.769531 548.332031 642.046875 C 547.597656 642.230469 546.863281 642.320312 546.152344 642.457031 C 546.109375 644.570312 545.972656 646.65625 545.832031 648.699219 C 550.371094 647.574219 554.886719 646.425781 559.40625 645.234375 C 559.359375 644.914062 559.175781 644.613281 559.175781 644.246094 C 558.945312 624.265625 559.222656 604.257812 559.3125 584.296875 C 559.589844 449.714844 562.039062 314.945312 560.253906 180.386719 C 560.253906 179.652344 560.460938 179.007812 560.621094 178.433594 Z M 582.121094 430.304688 C 582.167969 421.171875 582.214844 412.019531 582.304688 402.886719 C 578.25 402.40625 574.144531 402.222656 570.109375 402.265625 C 570.066406 411.191406 569.972656 420.070312 569.925781 429.019531 C 573.984375 429.433594 578.089844 429.890625 582.121094 430.304688 Z M 583.269531 205.644531 C 583.132812 205.644531 583.085938 205.554688 582.992188 205.507812 C 582.535156 205.507812 582.121094 205.507812 581.710938 205.507812 C 579.394531 205.507812 578.339844 203.582031 578.476562 201.8125 C 578.476562 201.722656 578.433594 201.675781 578.433594 201.585938 C 578.339844 196.789062 578.523438 191.992188 578.980469 187.222656 C 578.796875 186.578125 578.84375 185.9375 578.980469 185.292969 C 576.390625 184.355469 573.800781 183.390625 571.1875 182.382812 C 571.417969 201.722656 571.140625 220.992188 571.097656 240.335938 C 570.957031 291.980469 570.570312 343.714844 570.15625 395.429688 C 574.191406 395.382812 578.25 395.566406 582.304688 396.050781 C 582.71875 332.589844 583.085938 269.152344 583.269531 205.644531 Z M 583.316406 179.652344 C 583.359375 178.871094 583.40625 178.042969 583.40625 177.242188 C 571.074219 172.492188 558.535156 168.316406 545.878906 164.4375 C 545.878906 164.828125 545.925781 165.242188 545.925781 165.65625 C 558.394531 170.3125 570.867188 174.992188 583.316406 179.652344 Z M 592.371094 628.1875 C 592.371094 626.007812 592.371094 623.804688 592.371094 621.625 C 591.566406 621.625 590.789062 621.625 590.007812 621.625 C 590.054688 623.804688 590.191406 626.007812 590.328125 628.234375 C 591.019531 628.234375 591.707031 628.234375 592.371094 628.1875 Z M 594.066406 182.015625 C 594.066406 179.558594 594.113281 177.148438 594.113281 174.695312 C 593.792969 174.695312 593.46875 174.695312 593.148438 174.695312 C 592.691406 174.925781 592.1875 175.085938 591.613281 175.132812 C 591.199219 175.132812 590.742188 175.132812 590.328125 175.175781 C 590.238281 177.5625 590.144531 179.878906 590.054688 182.265625 C 591.382812 182.199219 592.738281 182.105469 594.066406 182.015625 Z M 593.332031 596.503906 C 592.691406 466.300781 595.738281 336.078125 595.121094 205.875 C 593.425781 205.875 591.726562 205.921875 590.101562 205.921875 C 589.6875 336.214844 588.542969 466.4375 588.175781 596.734375 C 589.917969 596.59375 591.613281 596.550781 593.332031 596.503906 Z M 596.382812 614.652344 C 596.246094 610.867188 596.105469 607.078125 595.96875 603.292969 C 592.371094 603.292969 588.726562 603.476562 585.125 603.84375 C 585.125 607.308594 585.125 610.820312 585.171875 614.285156 C 588.863281 614.925781 592.644531 615.019531 596.382812 614.652344 Z M 600.898438 188.460938 C 595.832031 188.757812 590.742188 189.035156 585.675781 189.355469 C 585.402344 192.589844 585.308594 195.847656 585.261719 199.082031 C 590.421875 199.082031 595.558594 199.039062 600.714844 199.039062 C 600.667969 195.480469 600.714844 191.972656 600.898438 188.460938 Z M 607.179688 669.394531 C 607.085938 660.101562 606.949219 650.761719 606.859375 641.449219 C 578.339844 648.929688 549.753906 656.179688 521.1875 663.472656 C 520.914062 674.96875 520.640625 686.464844 520.363281 697.980469 C 549.386719 688.644531 578.292969 679.121094 607.179688 669.394531 Z M 623.707031 420.277344 C 623.753906 420.140625 623.753906 419.980469 623.753906 419.910156 C 621.53125 419.773438 619.261719 419.863281 617.015625 420.140625 L 617.015625 420.1875 C 619.261719 420.230469 621.484375 420.230469 623.707031 420.277344 Z M 624.714844 438.449219 C 624.714844 438.035156 624.761719 437.667969 624.761719 437.277344 C 622.90625 437.324219 621.070312 437.371094 619.261719 437.417969 C 619.261719 437.78125 619.304688 438.082031 619.304688 438.449219 C 621.117188 438.679688 622.90625 438.679688 624.714844 438.449219 Z M 642.347656 429.433594 C 642.390625 428.742188 642.4375 428.054688 642.484375 427.320312 C 628.589844 427.160156 614.699219 426.976562 600.851562 426.792969 C 600.804688 428.101562 600.804688 429.433594 600.804688 430.808594 C 614.652344 430.898438 628.5 430.441406 642.347656 429.433594 Z M 645.210938 656.453125 C 643.765625 648.332031 642.894531 640.140625 642.621094 631.882812 C 633.429688 634.382812 624.257812 636.90625 615.019531 639.316406 C 615.15625 648.421875 615.25 657.554688 615.386719 666.617188 C 625.3125 663.289062 635.238281 659.871094 645.210938 656.453125 Z M 679.691406 356.632812 C 679.460938 356.632812 679.277344 356.726562 679.070312 356.679688 C 653.234375 352.480469 627.398438 348.328125 601.585938 344.128906 C 601.539062 349.910156 601.496094 355.714844 601.449219 361.496094 C 601.585938 361.496094 601.675781 361.453125 601.859375 361.453125 C 627.582031 363.859375 653.28125 366.292969 679.023438 368.65625 C 679.347656 364.640625 679.507812 360.625 679.691406 356.632812 Z M 679.964844 349.910156 C 680.101562 343.625 680.101562 337.339844 679.964844 331.007812 C 653.875 327.265625 627.8125 323.480469 601.769531 319.695312 C 601.722656 325.546875 601.675781 331.417969 601.632812 337.246094 C 627.765625 341.492188 653.875 345.691406 679.964844 349.910156 Z M 680.332031 487.316406 C 653.648438 487.085938 626.988281 487.730469 600.347656 489.199219 C 600.300781 494.613281 600.257812 500.097656 600.257812 505.511719 C 600.578125 505.417969 600.988281 505.328125 601.449219 505.328125 C 627.902344 506.660156 653.96875 504.960938 680.011719 500.1875 C 680.195312 495.898438 680.285156 491.609375 680.332031 487.316406 Z M 600.394531 482.363281 C 627.054688 480.894531 653.695312 480.25 680.378906 480.480469 C 680.332031 473 680.148438 465.566406 679.78125 458.109375 C 653.371094 458.109375 626.941406 458.109375 600.578125 458.109375 C 600.484375 466.164062 600.441406 474.238281 600.394531 482.363281 Z M 684.160156 593.269531 C 684.664062 589.988281 683.5625 586.429688 683.839844 583.105469 C 682.257812 583.882812 679.550781 584.574219 678.75 584.871094 C 672.148438 587.53125 665.570312 590.171875 658.964844 592.808594 C 659.378906 595.816406 659.792969 598.933594 659.699219 601.894531 C 659.792969 602.742188 659.835938 603.617188 659.929688 604.488281 C 658.667969 605.773438 658.738281 606 660.25 605.175781 C 661.441406 605.3125 663.941406 603.800781 665.085938 603.339844 C 670.269531 601.390625 683.242188 599.097656 684.160156 593.269531 Z M 684.527344 198.761719 C 684.34375 193.507812 684.207031 188.324219 684.023438 183.070312 C 683.839844 183.023438 683.65625 183.023438 683.519531 182.976562 C 683.425781 182.976562 683.382812 182.929688 683.335938 182.929688 C 682.671875 182.929688 681.9375 182.792969 681.15625 182.519531 C 593.058594 150.261719 503.195312 123.074219 413.765625 94.808594 C 409.5 93.5 408.355469 89.394531 409.363281 86.066406 C 408.078125 85.515625 406.796875 84.964844 405.535156 84.414062 C 405.535156 93.132812 405.535156 101.78125 405.535156 110.5 C 405.535156 111.992188 404.710938 112.957031 403.609375 113.460938 C 444.621094 130.597656 488.0625 140.625 530.792969 152.851562 C 531.070312 152.808594 531.253906 152.714844 531.574219 152.714844 C 534.074219 152.714844 536.617188 152.714844 539.140625 152.714844 C 539.941406 152.714844 540.539062 152.992188 541.042969 153.335938 C 541.316406 153.335938 541.546875 153.335938 541.820312 153.402344 C 542.667969 153.449219 543.3125 153.746094 543.816406 154.207031 C 544.824219 154.710938 545.558594 155.628906 545.605469 157.050781 C 545.605469 157.097656 545.605469 157.167969 545.605469 157.210938 C 558.625 161.179688 571.507812 165.425781 584.277344 170.3125 C 584.554688 169.855469 584.964844 169.488281 585.402344 169.257812 C 585.953125 168.84375 586.59375 168.476562 587.417969 168.476562 C 587.695312 168.429688 588.015625 168.429688 588.289062 168.429688 C 588.769531 168.066406 589.320312 167.859375 590.101562 167.859375 C 592.597656 167.859375 595.167969 167.859375 597.664062 167.859375 C 600.027344 167.859375 601.082031 169.808594 600.898438 171.621094 C 600.945312 171.734375 600.988281 171.804688 600.988281 171.894531 C 600.988281 172.21875 600.988281 172.492188 600.988281 172.8125 C 628.820312 181.484375 656.695312 190.089844 684.527344 198.761719 Z M 688.308594 610.589844 C 688.035156 608.363281 687.898438 606.070312 687.667969 603.800781 C 684.207031 605.589844 679.621094 606.53125 676.824219 607.628906 C 671.507812 609.648438 664.859375 613.640625 659.148438 614.054688 C 655.046875 614.375 653.003906 611.875 652.089844 608.179688 C 650.644531 602.125 650.875 595.058594 650.324219 588.792969 C 650.046875 585.375 653.371094 584.25 655.871094 585.238281 C 662.335938 582.691406 668.800781 580.097656 675.289062 577.507812 C 678.015625 576.40625 682.027344 573.90625 685.582031 573.582031 C 685.535156 573.078125 685.535156 572.574219 685.488281 572.070312 C 657.15625 579.226562 628.730469 585.972656 600.164062 592.351562 C 600.164062 593.773438 600.164062 595.195312 600.164062 596.59375 C 602.527344 597.007812 603.398438 599.464844 602.710938 601.34375 C 602.710938 601.390625 602.753906 601.4375 602.753906 601.480469 C 602.9375 606.851562 603.121094 612.289062 603.351562 617.703125 C 603.398438 618.988281 602.800781 619.859375 602 620.386719 C 601.90625 620.433594 601.816406 620.480469 601.769531 620.523438 C 601.496094 620.664062 601.21875 620.800781 600.898438 620.847656 C 600.761719 620.890625 600.714844 620.9375 600.578125 620.984375 C 600.117188 621.03125 599.660156 621.074219 599.203125 621.121094 C 599.203125 624.355469 599.203125 627.613281 599.203125 630.824219 C 599.203125 630.917969 599.15625 631.007812 599.15625 631.101562 C 599.15625 631.191406 599.203125 631.285156 599.203125 631.375 C 599.203125 633.394531 597.621094 634.613281 595.785156 634.796875 C 593.105469 635.117188 590.421875 635.164062 587.738281 635.023438 C 587.050781 634.980469 586.5 634.75 586.042969 634.472656 C 584.804688 634.085938 583.773438 633.027344 583.636719 631.375 C 583.359375 627.867188 583.222656 624.355469 583.132812 620.847656 C 582.398438 620.707031 581.664062 620.617188 580.90625 620.480469 C 579.578125 620.179688 578.890625 619.355469 578.660156 618.34375 C 578.617188 618.300781 578.617188 618.207031 578.570312 618.160156 C 578.570312 617.976562 578.476562 617.792969 578.476562 617.609375 C 578.433594 617.382812 578.339844 617.152344 578.339844 616.875 C 578.292969 611.417969 578.292969 605.957031 578.292969 600.472656 C 578.292969 598.476562 579.761719 597.375 581.367188 597.238281 C 581.480469 543.847656 581.800781 490.507812 582.078125 437.140625 C 578.042969 436.726562 573.9375 436.269531 569.882812 435.855469 C 569.421875 504.730469 569.195312 573.675781 570.109375 642.503906 C 609.632812 632.386719 649.085938 621.945312 688.308594 610.589844 Z M 689.179688 207.734375 C 689.179688 207.59375 689.226562 207.503906 689.273438 207.367188 C 659.792969 198.257812 630.355469 189.082031 600.898438 179.972656 C 600.898438 180.523438 600.898438 181.074219 600.898438 181.625 C 601.722656 181.578125 602.527344 181.53125 603.351562 181.484375 C 604.816406 181.394531 605.710938 182.058594 606.171875 183.023438 C 607.226562 183.527344 607.957031 184.445312 607.867188 185.9375 C 607.777344 186.855469 607.777344 187.773438 607.730469 188.691406 C 608.097656 188.691406 608.417969 188.691406 608.785156 188.757812 C 635.605469 196.835938 662.382812 204.863281 689.226562 212.941406 C 689.226562 211.199219 689.179688 209.476562 689.179688 207.734375 Z M 689.457031 243.984375 C 689.363281 236.042969 689.316406 228.0625 689.273438 220.097656 C 662.039062 211.929688 634.78125 203.71875 607.546875 195.527344 C 607.5 197.613281 607.5 199.65625 607.59375 201.769531 C 607.59375 202.320312 607.5 202.824219 607.269531 203.214844 C 606.996094 204.636719 605.964844 205.828125 604.128906 205.828125 C 603.398438 205.828125 602.664062 205.875 601.953125 205.875 C 602 210.832031 602 215.855469 602 220.8125 C 631.136719 228.566406 660.296875 236.273438 689.457031 243.984375 Z M 696.699219 607.996094 C 696.515625 599.601562 696.332031 591.273438 696.148438 582.875 C 694.085938 472.335938 690.671875 361.679688 689.5 251.09375 C 660.339844 243.339844 631.179688 235.632812 602 227.878906 C 602.042969 256.234375 602 284.546875 601.816406 312.859375 C 601.859375 312.859375 601.859375 312.859375 601.90625 312.859375 C 628.867188 316.78125 655.78125 320.660156 682.761719 324.582031 C 684.574219 324.351562 686.683594 325.339844 686.75 327.769531 C 687.164062 342.269531 686.84375 356.679688 685.71875 371.085938 C 685.671875 371.753906 685.445312 372.257812 685.125 372.714844 C 685.125 374.414062 684.023438 375.996094 681.890625 375.769531 C 655.183594 373.265625 628.5 370.8125 601.859375 368.289062 C 601.675781 368.289062 601.539062 368.195312 601.355469 368.152344 C 601.21875 385.425781 601.035156 402.703125 600.898438 419.957031 C 603.992188 419.980469 607.085938 420.023438 610.183594 420.070312 C 610.089844 419.269531 610.046875 418.394531 610 417.570312 C 609.953125 416.746094 610.183594 416.171875 610.550781 415.621094 C 610.824219 414.703125 611.511719 413.96875 612.773438 413.738281 C 617.519531 412.9375 622.21875 412.707031 626.988281 413.210938 C 628.132812 413.304688 629.003906 413.875 629.554688 414.65625 C 629.921875 415.070312 630.195312 415.484375 630.289062 416.03125 C 630.472656 417.523438 630.515625 418.945312 630.472656 420.347656 C 635.652344 420.390625 640.878906 420.484375 646.082031 420.53125 C 647.757812 420.574219 648.765625 421.585938 649.175781 422.824219 C 649.453125 423.28125 649.589844 423.765625 649.542969 424.316406 C 649.5 424.453125 649.5 424.546875 649.5 424.683594 C 650.046875 425.09375 650.507812 425.691406 650.691406 426.5625 C 651.058594 428.421875 651.242188 430.167969 651.011719 432.023438 C 650.964844 432.34375 650.875 432.667969 650.78125 432.941406 C 650.507812 434.386719 649.5 435.765625 647.59375 435.902344 C 642.253906 436.359375 636.9375 436.683594 631.59375 436.957031 C 631.59375 438.3125 631.59375 439.6875 631.457031 441.0625 C 631.363281 441.914062 631 442.691406 630.515625 443.335938 C 630.472656 443.425781 630.402344 443.472656 630.355469 443.519531 C 629.964844 444.160156 629.324219 444.644531 628.363281 444.894531 C 624.167969 445.746094 620.039062 445.746094 615.84375 444.894531 C 615.203125 444.757812 614.746094 444.484375 614.378906 444.160156 C 613.597656 443.75 612.957031 443.058594 612.886719 442.1875 C 612.660156 440.652344 612.519531 439.089844 612.519531 437.578125 C 608.601562 437.621094 604.636719 437.621094 600.714844 437.621094 C 600.667969 442.140625 600.667969 446.707031 600.621094 451.273438 C 628.085938 451.273438 655.550781 451.273438 683.035156 451.273438 C 685.261719 451.273438 686.339844 452.996094 686.292969 454.738281 C 686.339844 454.96875 686.5 455.175781 686.5 455.425781 C 687.347656 470.867188 687.4375 486.332031 686.796875 501.769531 C 686.796875 502 686.703125 502.183594 686.683594 502.414062 C 687.117188 504.066406 686.5 505.925781 684.34375 506.335938 C 656.878906 511.566406 629.371094 513.542969 601.449219 512.164062 C 600.988281 512.164062 600.578125 512.027344 600.210938 511.890625 C 600.117188 536.371094 600.074219 560.851562 600.164062 585.328125 C 629.1875 578.859375 658.070312 571.976562 686.886719 564.679688 C 688.90625 563.601562 692.046875 564.542969 692.09375 567.503906 C 692.460938 581.109375 693.445312 594.691406 694.910156 608.226562 C 695.507812 608.136719 696.105469 608.042969 696.699219 607.996094 Z M 697.136719 638.351562 C 697.089844 631.148438 696.976562 623.964844 696.816406 616.738281 C 694.085938 617.703125 691.359375 618.667969 688.628906 619.628906 C 687.757812 619.929688 687.027344 619.859375 686.382812 619.675781 C 674.507812 623.09375 662.65625 626.46875 650.734375 629.703125 C 650.917969 637.800781 651.628906 645.832031 653.003906 653.769531 C 667.722656 648.699219 682.441406 643.558594 697.136719 638.351562 Z M 712.035156 243.203125 C 711.992188 240.65625 711.992188 238.085938 711.945312 235.539062 C 707.269531 234.851562 702.476562 234.761719 697.730469 235.128906 C 697.777344 236.871094 697.824219 238.589844 697.871094 240.335938 C 702.476562 242.101562 707.175781 243.109375 712.035156 243.203125 Z M 711.992188 227.328125 C 711.992188 221.316406 712.035156 215.304688 712.082031 209.292969 C 707.175781 209.203125 702.292969 208.835938 697.363281 208.238281 C 697.410156 214.476562 697.546875 220.71875 697.640625 226.9375 C 702.429688 226.613281 707.222656 226.796875 711.992188 227.328125 Z M 712.816406 180.753906 C 706.078125 178.960938 699.382812 177.242188 692.640625 175.453125 C 692.414062 176.371094 692.183594 177.289062 691.910156 178.226562 C 691.679688 179.101562 691.265625 179.878906 690.761719 180.523438 C 690.992188 187.085938 691.222656 193.601562 691.40625 200.117188 C 691.449219 200.390625 691.359375 200.621094 691.3125 200.851562 C 691.679688 200.988281 692.046875 201.078125 692.460938 201.21875 C 692.964844 201.035156 693.558594 200.894531 694.179688 201.035156 C 700.207031 201.90625 706.167969 202.363281 712.21875 202.503906 C 712.359375 195.253906 712.539062 187.957031 712.816406 180.753906 Z M 713.046875 345.183594 C 713.046875 341.675781 713 338.164062 713 334.652344 C 712.953125 306.984375 712.359375 279.222656 712.082031 251.417969 C 707.3125 251.371094 702.613281 250.542969 698.050781 249.03125 C 698.144531 254.191406 698.28125 259.378906 698.375 264.539062 C 698.878906 290.925781 699.429688 317.332031 700.023438 343.714844 C 704.378906 343.761719 708.757812 344.265625 713.046875 345.183594 Z M 713.089844 361.679688 C 713.089844 358.90625 713.046875 356.175781 713.046875 353.398438 C 712.816406 353.398438 712.585938 353.445312 712.3125 353.398438 C 708.300781 352.433594 704.289062 351.976562 700.207031 351.929688 C 700.277344 355.164062 700.390625 358.398438 700.4375 361.679688 C 704.65625 361.679688 708.851562 361.679688 713.089844 361.679688 Z M 713.320312 460.246094 C 713.230469 430.121094 713.183594 400.019531 713.089844 369.894531 C 708.941406 369.894531 704.792969 369.894531 700.621094 369.894531 C 701.332031 401.027344 702.0625 432.160156 702.753906 463.339844 C 706.078125 461.710938 709.675781 460.703125 713.320312 460.246094 Z M 713.367188 481.855469 C 713.367188 477.429688 713.367188 473.046875 713.367188 468.640625 C 709.675781 469.261719 706.214844 470.589844 702.980469 472.75 C 703.027344 475.523438 703.074219 478.253906 703.117188 481.03125 C 706.535156 481.582031 709.949219 481.855469 713.367188 481.855469 Z M 713.640625 583.472656 C 713.640625 582.140625 713.640625 580.832031 713.59375 579.503906 C 713.550781 549.699219 713.457031 519.875 713.414062 490.070312 C 709.996094 490.070312 706.671875 489.796875 703.300781 489.335938 C 703.921875 520.882812 704.472656 552.429688 704.839844 584.023438 C 707.75 583.195312 710.683594 583.011719 713.640625 583.472656 Z M 713.6875 608.136719 C 713.6875 602.722656 713.6875 597.285156 713.640625 591.847656 C 710.84375 591.179688 707.980469 591.179688 705.25 592.394531 C 705.160156 592.441406 705.066406 592.441406 704.976562 592.488281 C 705.023438 597.558594 705.066406 602.582031 705.113281 607.628906 C 707.726562 607.628906 710.363281 607.722656 713.046875 607.953125 C 713.273438 607.996094 713.457031 608.089844 713.6875 608.136719 Z M 713.777344 632.476562 C 713.734375 627.015625 713.734375 621.535156 713.734375 616.074219 C 713.503906 616.121094 713.320312 616.210938 713.046875 616.164062 C 710.410156 615.9375 707.796875 615.796875 705.160156 615.796875 C 705.207031 622.359375 705.296875 628.921875 705.296875 635.4375 C 708.117188 634.429688 710.960938 633.488281 713.777344 632.476562 Z M 727.441406 634.335938 C 728.589844 637.710938 727.535156 642.046875 723.199219 643.605469 C 607.683594 684.949219 490.976562 722.917969 373.28125 757.519531 C 371.582031 758.023438 370.140625 757.886719 368.902344 757.378906 C 367.890625 757.5625 366.769531 757.519531 365.484375 757.011719 C 269.867188 721.152344 176.3125 680.199219 85.117188 634.265625 C 84.246094 633.808594 83.628906 633.304688 83.078125 632.707031 C 81.792969 632.476562 80.625 631.882812 79.753906 630.824219 C 78.835938 629.703125 77.875 628.554688 76.933594 627.40625 C 76.476562 626.878906 76.109375 626.238281 75.785156 625.640625 C 74.960938 624.585938 74.457031 623.1875 74.550781 621.441406 C 75.238281 603.25 74 584.824219 73.679688 566.609375 C 72.371094 491.058594 70.902344 415.484375 69.460938 339.929688 C 68.589844 291.566406 65.128906 242.421875 66.9375 194.058594 C 67.167969 187.726562 74.367188 185.9375 78.238281 188.804688 C 84.292969 186.671875 90.414062 184.582031 96.464844 182.425781 C 96.558594 182.425781 96.601562 182.425781 96.648438 182.382812 C 97.105469 182.152344 97.566406 181.921875 98.046875 181.808594 C 101.53125 180.84375 104.625 182.746094 106.070312 185.753906 C 180.550781 147.921875 255.082031 110.042969 329.539062 72.207031 C 329.90625 72.023438 330.226562 71.886719 330.59375 71.796875 C 331.464844 69.800781 332.335938 67.78125 333.183594 65.832031 C 333.320312 65.554688 333.460938 65.371094 333.644531 65.140625 C 334.238281 62.894531 336.027344 61.035156 338.386719 60.210938 C 343.890625 58.304688 349.460938 56.378906 354.964844 54.472656 C 356.429688 53.1875 358.46875 52.59375 360.921875 53.371094 C 380.109375 59.335938 398.839844 66.449219 417.179688 74.664062 C 419.746094 75.808594 420.78125 77.761719 420.734375 79.78125 C 421.652344 80.71875 422.199219 81.960938 422.429688 83.242188 C 508.785156 110.453125 595.464844 136.839844 680.515625 167.789062 C 680.699219 167.214844 680.835938 166.617188 681.019531 166.023438 C 681.800781 163.15625 684.296875 161.363281 687.027344 161.136719 C 688.21875 160.632812 689.640625 160.5625 691.175781 160.976562 C 701.011719 163.523438 710.84375 166.070312 720.703125 168.660156 C 721.78125 168.9375 722.695312 169.394531 723.382812 169.992188 C 725.332031 171 726.753906 172.90625 726.617188 175.820312 C 725.746094 196.191406 726.523438 216.703125 726.523438 237.144531 C 726.664062 369.527344 727.03125 501.910156 727.441406 634.335938 Z M 383.480469 90.929688 C 384.121094 90.035156 383.757812 84.320312 383.800781 83.289062 C 383.941406 80.765625 384.03125 78.265625 384.167969 75.765625 C 378.253906 73.515625 372.269531 71.472656 366.265625 69.476562 C 366.3125 79.320312 366.402344 89.164062 366.449219 99.003906 C 367.226562 99.234375 368.03125 99.464844 368.808594 99.695312 C 368.808594 96.277344 370.78125 93.085938 374.378906 91.390625 C 375.734375 90.816406 377.152344 90.492188 378.597656 90.355469 C 378.964844 90.308594 383.480469 90.539062 383.480469 90.929688 " fill-opacity="1" fill-rule="nonzero"/><path fill="#b77e21" d="M 713.734375 616.074219 C 713.734375 621.535156 713.734375 627.015625 713.777344 632.476562 C 710.960938 633.488281 708.117188 634.429688 705.296875 635.4375 C 705.296875 628.921875 705.207031 622.359375 705.160156 615.796875 C 707.796875 615.796875 710.410156 615.9375 713.046875 616.164062 C 713.320312 616.210938 713.503906 616.121094 713.734375 616.074219 " fill-opacity="1" fill-rule="nonzero"/><path fill="#f9b02d" d="M 713.640625 591.847656 C 713.6875 597.285156 713.6875 602.722656 713.6875 608.136719 C 713.457031 608.089844 713.273438 607.996094 713.046875 607.953125 C 710.363281 607.722656 707.726562 607.628906 705.113281 607.628906 C 705.066406 602.582031 705.023438 597.558594 704.976562 592.488281 C 705.066406 592.441406 705.160156 592.441406 705.25 592.394531 C 707.980469 591.179688 710.84375 591.179688 713.640625 591.847656 " fill-opacity="1" fill-rule="nonzero"/><path fill="#b77e21" d="M 713.59375 579.503906 C 713.640625 580.832031 713.640625 582.140625 713.640625 583.472656 C 710.683594 583.011719 707.75 583.195312 704.839844 584.023438 C 704.472656 552.429688 703.921875 520.882812 703.300781 489.335938 C 706.671875 489.796875 709.996094 490.070312 713.414062 490.070312 C 713.457031 519.875 713.550781 549.699219 713.59375 579.503906 " fill-opacity="1" fill-rule="nonzero"/><path fill="#f9b02d" d="M 713.367188 468.640625 C 713.367188 473.046875 713.367188 477.429688 713.367188 481.855469 C 709.949219 481.855469 706.535156 481.582031 703.117188 481.03125 C 703.074219 478.253906 703.027344 475.523438 702.980469 472.75 C 706.214844 470.589844 709.675781 469.261719 713.367188 468.640625 " fill-opacity="1" fill-rule="nonzero"/><path fill="#b77e21" d="M 713.089844 369.894531 C 713.183594 400.019531 713.230469 430.121094 713.320312 460.246094 C 709.675781 460.703125 706.078125 461.710938 702.753906 463.339844 C 702.0625 432.160156 701.332031 401.027344 700.621094 369.894531 C 704.792969 369.894531 708.941406 369.894531 713.089844 369.894531 " fill-opacity="1" fill-rule="nonzero"/><path fill="#f9b02d" d="M 713.046875 353.398438 C 713.046875 356.175781 713.089844 358.90625 713.089844 361.679688 C 708.851562 361.679688 704.65625 361.679688 700.4375 361.679688 C 700.390625 358.398438 700.277344 355.164062 700.207031 351.929688 C 704.289062 351.976562 708.300781 352.433594 712.3125 353.398438 C 712.585938 353.445312 712.816406 353.398438 713.046875 353.398438 " fill-opacity="1" fill-rule="nonzero"/><path fill="#b77e21" d="M 713 334.652344 C 713 338.164062 713.046875 341.675781 713.046875 345.183594 C 708.757812 344.265625 704.378906 343.761719 700.023438 343.714844 C 699.429688 317.332031 698.878906 290.925781 698.375 264.539062 C 698.28125 259.378906 698.144531 254.191406 698.050781 249.03125 C 702.613281 250.542969 707.3125 251.371094 712.082031 251.417969 C 712.359375 279.222656 712.953125 306.984375 713 334.652344 " fill-opacity="1" fill-rule="nonzero"/><path fill="#f9b02d" d="M 692.640625 175.453125 C 699.382812 177.242188 706.078125 178.960938 712.816406 180.753906 C 712.539062 187.957031 712.359375 195.253906 712.21875 202.503906 C 706.167969 202.363281 700.207031 201.90625 694.179688 201.035156 C 693.558594 200.894531 692.964844 201.035156 692.460938 201.21875 C 692.046875 201.078125 691.679688 200.988281 691.3125 200.851562 C 691.359375 200.621094 691.449219 200.390625 691.40625 200.117188 C 691.222656 193.601562 690.992188 187.085938 690.761719 180.523438 C 691.265625 179.878906 691.679688 179.101562 691.910156 178.226562 C 692.183594 177.289062 692.414062 176.371094 692.640625 175.453125 " fill-opacity="1" fill-rule="nonzero"/><path fill="#b77e21" d="M 712.082031 209.292969 C 712.035156 215.304688 711.992188 221.316406 711.992188 227.328125 C 707.222656 226.796875 702.429688 226.613281 697.640625 226.9375 C 697.546875 220.71875 697.410156 214.476562 697.363281 208.238281 C 702.292969 208.835938 707.175781 209.203125 712.082031 209.292969 " fill-opacity="1" fill-rule="nonzero"/><path fill="#f9b02d" d="M 711.945312 235.539062 C 711.992188 238.085938 711.992188 240.65625 712.035156 243.203125 C 707.175781 243.109375 702.476562 242.101562 697.871094 240.335938 C 697.824219 238.589844 697.777344 236.871094 697.730469 235.128906 C 702.476562 234.761719 707.269531 234.851562 711.945312 235.539062 " fill-opacity="1" fill-rule="nonzero"/><path fill="#f9b02d" d="M 696.816406 616.738281 C 696.976562 623.964844 697.089844 631.148438 697.136719 638.351562 C 682.441406 643.558594 667.722656 648.699219 653.003906 653.769531 C 651.628906 645.832031 650.917969 637.800781 650.734375 629.703125 C 662.65625 626.46875 674.507812 623.09375 686.382812 619.675781 C 687.027344 619.859375 687.757812 619.929688 688.628906 619.628906 C 691.359375 618.667969 694.085938 617.703125 696.816406 616.738281 " fill-opacity="1" fill-rule="nonzero"/><path fill="#f9b02d" d="M 696.148438 582.875 C 696.332031 591.273438 696.515625 599.601562 696.699219 607.996094 C 696.105469 608.042969 695.507812 608.136719 694.910156 608.226562 C 693.445312 594.691406 692.460938 581.109375 692.09375 567.503906 C 692.046875 564.542969 688.90625 563.601562 686.886719 564.679688 C 658.070312 571.976562 629.1875 578.859375 600.164062 585.328125 C 600.074219 560.851562 600.117188 536.371094 600.210938 511.890625 C 600.578125 512.027344 600.988281 512.164062 601.449219 512.164062 C 629.371094 513.542969 656.878906 511.566406 684.34375 506.335938 C 686.5 505.925781 687.117188 504.066406 686.683594 502.414062 C 686.703125 502.183594 686.796875 502 686.796875 501.769531 C 687.4375 486.332031 687.347656 470.867188 686.5 455.425781 C 686.5 455.175781 686.339844 454.96875 686.292969 454.738281 C 686.339844 452.996094 685.261719 451.273438 683.035156 451.273438 C 655.550781 451.273438 628.085938 451.273438 600.621094 451.273438 C 600.667969 446.707031 600.667969 442.140625 600.714844 437.621094 C 604.636719 437.621094 608.601562 437.621094 612.519531 437.578125 C 612.519531 439.089844 612.660156 440.652344 612.886719 442.1875 C 612.957031 443.058594 613.597656 443.75 614.378906 444.160156 C 614.746094 444.484375 615.203125 444.757812 615.84375 444.894531 C 620.039062 445.746094 624.167969 445.746094 628.363281 444.894531 C 629.324219 444.644531 629.964844 444.160156 630.355469 443.519531 C 630.402344 443.472656 630.472656 443.425781 630.515625 443.335938 C 631 442.691406 631.363281 441.914062 631.457031 441.0625 C 631.59375 439.6875 631.59375 438.3125 631.59375 436.957031 C 636.9375 436.683594 642.253906 436.359375 647.59375 435.902344 C 649.5 435.765625 650.507812 434.386719 650.78125 432.941406 C 650.875 432.667969 650.964844 432.34375 651.011719 432.023438 C 651.242188 430.167969 651.058594 428.421875 650.691406 426.5625 C 650.507812 425.691406 650.046875 425.09375 649.5 424.683594 C 649.5 424.546875 649.5 424.453125 649.542969 424.316406 C 649.589844 423.765625 649.453125 423.28125 649.175781 422.824219 C 648.765625 421.585938 647.757812 420.574219 646.082031 420.53125 C 640.878906 420.484375 635.652344 420.390625 630.472656 420.347656 C 630.515625 418.945312 630.472656 417.523438 630.289062 416.03125 C 630.195312 415.484375 629.921875 415.070312 629.554688 414.65625 C 629.003906 413.875 628.132812 413.304688 626.988281 413.210938 C 622.21875 412.707031 617.519531 412.9375 612.773438 413.738281 C 611.511719 413.96875 610.824219 414.703125 610.550781 415.621094 C 610.183594 416.171875 609.953125 416.746094 610 417.570312 C 610.046875 418.394531 610.089844 419.269531 610.183594 420.070312 C 607.085938 420.023438 603.992188 419.980469 600.898438 419.957031 C 601.035156 402.703125 601.21875 385.425781 601.355469 368.152344 C 601.539062 368.195312 601.675781 368.289062 601.859375 368.289062 C 628.5 370.8125 655.183594 373.265625 681.890625 375.769531 C 684.023438 375.996094 685.125 374.414062 685.125 372.714844 C 685.445312 372.257812 685.671875 371.753906 685.71875 371.085938 C 686.84375 356.679688 687.164062 342.269531 686.75 327.769531 C 686.683594 325.339844 684.574219 324.351562 682.761719 324.582031 C 655.78125 320.660156 628.867188 316.78125 601.90625 312.859375 C 601.859375 312.859375 601.859375 312.859375 601.816406 312.859375 C 602 284.546875 602.042969 256.234375 602 227.878906 C 631.179688 235.632812 660.339844 243.339844 689.5 251.09375 C 690.671875 361.679688 694.085938 472.335938 696.148438 582.875 " fill-opacity="1" fill-rule="nonzero"/><path fill="#f9b02d" d="M 689.273438 220.097656 C 689.316406 228.0625 689.363281 236.042969 689.457031 243.984375 C 660.296875 236.273438 631.136719 228.566406 602 220.8125 C 602 215.855469 602 210.832031 601.953125 205.875 C 602.664062 205.875 603.398438 205.828125 604.128906 205.828125 C 605.964844 205.828125 606.996094 204.636719 607.269531 203.214844 C 607.5 202.824219 607.59375 202.320312 607.59375 201.769531 C 607.5 199.65625 607.5 197.613281 607.546875 195.527344 C 634.78125 203.71875 662.039062 211.929688 689.273438 220.097656 " fill-opacity="1" fill-rule="nonzero"/><path fill="#4d4d4d" d="M 689.273438 207.367188 C 689.226562 207.503906 689.179688 207.59375 689.179688 207.734375 C 689.179688 209.476562 689.226562 211.199219 689.226562 212.941406 C 662.382812 204.863281 635.605469 196.835938 608.785156 188.757812 C 608.417969 188.691406 608.097656 188.691406 607.730469 188.691406 C 607.777344 187.773438 607.777344 186.855469 607.867188 185.9375 C 607.957031 184.445312 607.226562 183.527344 606.171875 183.023438 C 605.710938 182.058594 604.816406 181.394531 603.351562 181.484375 C 602.527344 181.53125 601.722656 181.578125 600.898438 181.625 C 600.898438 181.074219 600.898438 180.523438 600.898438 179.972656 C 630.355469 189.082031 659.792969 198.257812 689.273438 207.367188 " fill-opacity="1" fill-rule="nonzero"/><path fill="#f9b02d" d="M 687.667969 603.800781 C 687.898438 606.070312 688.035156 608.363281 688.308594 610.589844 C 649.085938 621.945312 609.632812 632.386719 570.109375 642.503906 C 569.195312 573.675781 569.421875 504.730469 569.882812 435.855469 C 573.9375 436.269531 578.042969 436.726562 582.078125 437.140625 C 581.800781 490.507812 581.480469 543.847656 581.367188 597.238281 C 579.761719 597.375 578.292969 598.476562 578.292969 600.472656 C 578.292969 605.957031 578.292969 611.417969 578.339844 616.875 C 578.339844 617.152344 578.433594 617.382812 578.476562 617.609375 C 578.476562 617.792969 578.570312 617.976562 578.570312 618.160156 C 578.617188 618.207031 578.617188 618.300781 578.660156 618.34375 C 578.890625 619.355469 579.578125 620.179688 580.90625 620.480469 C 581.664062 620.617188 582.398438 620.707031 583.132812 620.847656 C 583.222656 624.355469 583.359375 627.867188 583.636719 631.375 C 583.773438 633.027344 584.804688 634.085938 586.042969 634.472656 C 586.5 634.75 587.050781 634.980469 587.738281 635.023438 C 590.421875 635.164062 593.105469 635.117188 595.785156 634.796875 C 597.621094 634.613281 599.203125 633.394531 599.203125 631.375 C 599.203125 631.285156 599.15625 631.191406 599.15625 631.101562 C 599.15625 631.007812 599.203125 630.917969 599.203125 630.824219 C 599.203125 627.613281 599.203125 624.355469 599.203125 621.121094 C 599.660156 621.074219 600.117188 621.03125 600.578125 620.984375 C 600.714844 620.9375 600.761719 620.890625 600.898438 620.847656 C 601.21875 620.800781 601.496094 620.664062 601.769531 620.523438 C 601.816406 620.480469 601.90625 620.433594 602 620.386719 C 602.800781 619.859375 603.398438 618.988281 603.351562 617.703125 C 603.121094 612.289062 602.9375 606.851562 602.753906 601.480469 C 602.753906 601.4375 602.710938 601.390625 602.710938 601.34375 C 603.398438 599.464844 602.527344 597.007812 600.164062 596.59375 C 600.164062 595.195312 600.164062 593.773438 600.164062 592.351562 C 628.730469 585.972656 657.15625 579.226562 685.488281 572.070312 C 685.535156 572.574219 685.535156 573.078125 685.582031 573.582031 C 682.027344 573.90625 678.015625 576.40625 675.289062 577.507812 C 668.800781 580.097656 662.335938 582.691406 655.871094 585.238281 C 653.371094 584.25 650.046875 585.375 650.324219 588.792969 C 650.875 595.058594 650.644531 602.125 652.089844 608.179688 C 653.003906 611.875 655.046875 614.375 659.148438 614.054688 C 664.859375 613.640625 671.507812 609.648438 676.824219 607.628906 C 679.621094 606.53125 684.207031 605.589844 687.667969 603.800781 " fill-opacity="1" fill-rule="nonzero"/><path fill="#f9b02d" d="M 684.023438 183.070312 C 684.207031 188.324219 684.34375 193.507812 684.527344 198.761719 C 656.695312 190.089844 628.820312 181.484375 600.988281 172.8125 C 600.988281 172.492188 600.988281 172.21875 600.988281 171.894531 C 600.988281 171.804688 600.945312 171.734375 600.898438 171.621094 C 601.082031 169.808594 600.027344 167.859375 597.664062 167.859375 C 595.167969 167.859375 592.597656 167.859375 590.101562 167.859375 C 589.320312 167.859375 588.769531 168.066406 588.289062 168.429688 C 588.015625 168.429688 587.695312 168.429688 587.417969 168.476562 C 586.59375 168.476562 585.953125 168.84375 585.402344 169.257812 C 584.964844 169.488281 584.554688 169.855469 584.277344 170.3125 C 571.507812 165.425781 558.625 161.179688 545.605469 157.210938 C 545.605469 157.167969 545.605469 157.097656 545.605469 157.050781 C 545.558594 155.628906 544.824219 154.710938 543.816406 154.207031 C 543.3125 153.746094 542.667969 153.449219 541.820312 153.402344 C 541.546875 153.335938 541.316406 153.335938 541.042969 153.335938 C 540.539062 152.992188 539.941406 152.714844 539.140625 152.714844 C 536.617188 152.714844 534.074219 152.714844 531.574219 152.714844 C 531.253906 152.714844 531.070312 152.808594 530.792969 152.851562 C 488.0625 140.625 444.621094 130.597656 403.609375 113.460938 C 404.710938 112.957031 405.535156 111.992188 405.535156 110.5 C 405.535156 101.78125 405.535156 93.132812 405.535156 84.414062 C 406.796875 84.964844 408.078125 85.515625 409.363281 86.066406 C 408.355469 89.394531 409.5 93.5 413.765625 94.808594 C 503.195312 123.074219 593.058594 150.261719 681.15625 182.519531 C 681.9375 182.792969 682.671875 182.929688 683.335938 182.929688 C 683.382812 182.929688 683.425781 182.976562 683.519531 182.976562 C 683.65625 183.023438 683.839844 183.023438 684.023438 183.070312 " fill-opacity="1" fill-rule="nonzero"/><path fill="#e6e6e6" d="M 683.839844 583.105469 C 683.5625 586.429688 684.664062 589.988281 684.160156 593.269531 C 683.242188 599.097656 670.269531 601.390625 665.085938 603.339844 C 663.941406 603.800781 661.441406 605.3125 660.25 605.175781 C 658.738281 606 658.667969 605.773438 659.929688 604.488281 C 659.835938 603.617188 659.792969 602.742188 659.699219 601.894531 C 659.792969 598.933594 659.378906 595.816406 658.964844 592.808594 C 665.570312 590.171875 672.148438 587.53125 678.75 584.871094 C 679.550781 584.574219 682.257812 583.882812 683.839844 583.105469 " fill-opacity="1" fill-rule="nonzero"/><path fill="#b77e21" d="M 680.378906 480.480469 C 653.695312 480.25 627.054688 480.894531 600.394531 482.363281 C 600.441406 474.238281 600.484375 466.164062 600.578125 458.109375 C 626.941406 458.109375 653.371094 458.109375 679.78125 458.109375 C 680.148438 465.566406 680.332031 473 680.378906 480.480469 " fill-opacity="1" fill-rule="nonzero"/><path fill="#ffcf83" d="M 600.347656 489.199219 C 626.988281 487.730469 653.648438 487.085938 680.332031 487.316406 C 680.285156 491.609375 680.195312 495.898438 680.011719 500.1875 C 653.96875 504.960938 627.902344 506.660156 601.449219 505.328125 C 600.988281 505.328125 600.578125 505.417969 600.257812 505.511719 C 600.257812 500.097656 600.300781 494.613281 600.347656 489.199219 " fill-opacity="1" fill-rule="nonzero"/><path fill="#b77e21" d="M 679.964844 331.007812 C 680.101562 337.339844 680.101562 343.625 679.964844 349.910156 C 653.875 345.691406 627.765625 341.492188 601.632812 337.246094 C 601.675781 331.417969 601.722656 325.546875 601.769531 319.695312 C 627.8125 323.480469 653.875 327.265625 679.964844 331.007812 " fill-opacity="1" fill-rule="nonzero"/><path fill="#ffcf83" d="M 679.070312 356.679688 C 679.277344 356.726562 679.460938 356.632812 679.691406 356.632812 C 679.507812 360.625 679.347656 364.640625 679.023438 368.65625 C 653.28125 366.292969 627.582031 363.859375 601.859375 361.453125 C 601.675781 361.453125 601.585938 361.496094 601.449219 361.496094 C 601.496094 355.714844 601.539062 349.910156 601.585938 344.128906 C 627.398438 348.328125 653.234375 352.480469 679.070312 356.679688 " fill-opacity="1" fill-rule="nonzero"/><path fill="#4d4d4d" d="M 642.621094 631.882812 C 642.894531 640.140625 643.765625 648.332031 645.210938 656.453125 C 635.238281 659.871094 625.3125 663.289062 615.386719 666.617188 C 615.25 657.554688 615.15625 648.421875 615.019531 639.316406 C 624.257812 636.90625 633.429688 634.382812 642.621094 631.882812 " fill-opacity="1" fill-rule="nonzero"/><path fill="#cccccc" d="M 642.484375 427.320312 C 642.4375 428.054688 642.390625 428.742188 642.347656 429.433594 C 628.5 430.441406 614.652344 430.898438 600.804688 430.808594 C 600.804688 429.433594 600.804688 428.101562 600.851562 426.792969 C 614.699219 426.976562 628.589844 427.160156 642.484375 427.320312 " fill-opacity="1" fill-rule="nonzero"/><path fill="#cccccc" d="M 624.761719 437.277344 C 624.761719 437.667969 624.714844 438.035156 624.714844 438.449219 C 622.90625 438.679688 621.117188 438.679688 619.304688 438.449219 C 619.304688 438.082031 619.261719 437.78125 619.261719 437.417969 C 621.070312 437.371094 622.90625 437.324219 624.761719 437.277344 " fill-opacity="1" fill-rule="nonzero"/><path fill="#cccccc" d="M 623.753906 419.910156 C 623.753906 419.980469 623.753906 420.140625 623.707031 420.277344 C 621.484375 420.230469 619.261719 420.230469 617.015625 420.1875 L 617.015625 420.140625 C 619.261719 419.863281 621.53125 419.773438 623.753906 419.910156 " fill-opacity="1" fill-rule="nonzero"/><path fill="#f9b02d" d="M 606.859375 641.449219 C 606.949219 650.761719 607.085938 660.101562 607.179688 669.394531 C 578.292969 679.121094 549.386719 688.644531 520.363281 697.980469 C 520.640625 686.464844 520.914062 674.96875 521.1875 663.472656 C 549.753906 656.179688 578.339844 648.929688 606.859375 641.449219 " fill-opacity="1" fill-rule="nonzero"/><path fill="#cccccc" d="M 585.675781 189.355469 C 590.742188 189.035156 595.832031 188.757812 600.898438 188.460938 C 600.714844 191.972656 600.667969 195.480469 600.714844 199.039062 C 595.558594 199.039062 590.421875 199.082031 585.261719 199.082031 C 585.308594 195.847656 585.402344 192.589844 585.675781 189.355469 " fill-opacity="1" fill-rule="nonzero"/><path fill="#cccccc" d="M 595.96875 603.292969 C 596.105469 607.078125 596.246094 610.867188 596.382812 614.652344 C 592.644531 615.019531 588.863281 614.925781 585.171875 614.285156 C 585.125 610.820312 585.125 607.308594 585.125 603.84375 C 588.726562 603.476562 592.371094 603.292969 595.96875 603.292969 " fill-opacity="1" fill-rule="nonzero"/><path fill="#cccccc" d="M 595.121094 205.875 C 595.738281 336.078125 592.691406 466.300781 593.332031 596.503906 C 591.613281 596.550781 589.917969 596.59375 588.175781 596.734375 C 588.542969 466.4375 589.6875 336.214844 590.101562 205.921875 C 591.726562 205.921875 593.425781 205.875 595.121094 205.875 " fill-opacity="1" fill-rule="nonzero"/><path fill="#cccccc" d="M 594.113281 174.695312 C 594.113281 177.148438 594.066406 179.558594 594.066406 182.015625 C 592.738281 182.105469 591.382812 182.199219 590.054688 182.265625 C 590.144531 179.878906 590.238281 177.5625 590.328125 175.175781 C 590.742188 175.132812 591.199219 175.132812 591.613281 175.132812 C 592.1875 175.085938 592.691406 174.925781 593.148438 174.695312 C 593.46875 174.695312 593.792969 174.695312 594.113281 174.695312 " fill-opacity="1" fill-rule="nonzero"/><path fill="#cccccc" d="M 592.371094 621.625 C 592.371094 623.804688 592.371094 626.007812 592.371094 628.1875 C 591.707031 628.234375 591.019531 628.234375 590.328125 628.234375 C 590.191406 626.007812 590.054688 623.804688 590.007812 621.625 C 590.789062 621.625 591.566406 621.625 592.371094 621.625 " fill-opacity="1" fill-rule="nonzero"/><path fill="#4d4d4d" d="M 583.40625 177.242188 C 583.40625 178.042969 583.359375 178.871094 583.316406 179.652344 C 570.867188 174.992188 558.394531 170.3125 545.925781 165.65625 C 545.925781 165.242188 545.878906 164.828125 545.878906 164.4375 C 558.535156 168.316406 571.074219 172.492188 583.40625 177.242188 " fill-opacity="1" fill-rule="nonzero"/><path fill="#f9b02d" d="M 582.992188 205.507812 C 583.085938 205.554688 583.132812 205.644531 583.269531 205.644531 C 583.085938 269.152344 582.71875 332.589844 582.304688 396.050781 C 578.25 395.566406 574.191406 395.382812 570.15625 395.429688 C 570.570312 343.714844 570.957031 291.980469 571.097656 240.335938 C 571.140625 220.992188 571.417969 201.722656 571.1875 182.382812 C 573.800781 183.390625 576.390625 184.355469 578.980469 185.292969 C 578.84375 185.9375 578.796875 186.578125 578.980469 187.222656 C 578.523438 191.992188 578.339844 196.789062 578.433594 201.585938 C 578.433594 201.675781 578.476562 201.722656 578.476562 201.8125 C 578.339844 203.582031 579.394531 205.507812 581.710938 205.507812 C 582.121094 205.507812 582.535156 205.507812 582.992188 205.507812 " fill-opacity="1" fill-rule="nonzero"/><path fill="#f9b02d" d="M 582.304688 402.886719 C 582.214844 412.019531 582.167969 421.171875 582.121094 430.304688 C 578.089844 429.890625 573.984375 429.433594 569.925781 429.019531 C 569.972656 420.070312 570.066406 411.191406 570.109375 402.265625 C 574.144531 402.222656 578.25 402.40625 582.304688 402.886719 " fill-opacity="1" fill-rule="nonzero"/><path fill="#f9b02d" d="M 550.328125 174.582031 C 553.742188 175.863281 557.203125 177.148438 560.621094 178.433594 C 560.460938 179.007812 560.253906 179.652344 560.253906 180.386719 C 562.039062 314.945312 559.589844 449.714844 559.3125 584.296875 C 559.222656 604.257812 558.945312 624.265625 559.175781 644.246094 C 559.175781 644.613281 559.359375 644.914062 559.40625 645.234375 C 554.886719 646.425781 550.371094 647.574219 545.832031 648.699219 C 545.972656 646.65625 546.109375 644.570312 546.152344 642.457031 C 546.863281 642.320312 547.597656 642.230469 548.332031 642.046875 C 549.617188 641.769531 550.28125 640.921875 550.554688 640.003906 C 550.648438 639.820312 550.648438 639.589844 550.691406 639.40625 C 550.691406 639.359375 550.738281 639.316406 550.738281 639.222656 C 550.785156 638.992188 550.875 638.765625 550.875 638.488281 C 550.921875 632.570312 550.921875 626.652344 550.921875 620.707031 C 550.921875 618.667969 549.476562 617.609375 547.875 617.472656 C 547.550781 493.992188 546.773438 370.535156 546.246094 247.035156 C 546.152344 229.070312 546.0625 211.058594 545.972656 193.09375 C 546.109375 193.050781 546.199219 192.957031 546.316406 192.910156 C 546.679688 192.910156 547.09375 192.910156 547.507812 192.910156 C 549.84375 192.910156 550.875 191.007812 550.738281 189.171875 C 550.738281 189.082031 550.785156 189.035156 550.785156 188.917969 C 550.875 184.125 550.691406 179.328125 550.328125 174.582031 " fill-opacity="1" fill-rule="nonzero"/><path fill="#cccccc" d="M 544.089844 624.035156 C 544.089844 628.003906 544.089844 631.972656 544.046875 635.941406 C 540.355469 636.585938 536.570312 636.722656 532.835938 636.308594 C 532.972656 632.019531 533.109375 627.730469 533.246094 623.507812 C 536.894531 623.4375 540.492188 623.621094 544.089844 624.035156 " fill-opacity="1" fill-rule="nonzero"/><path fill="#cccccc" d="M 543.953125 186.535156 C 538.816406 186.488281 533.660156 186.488281 528.523438 186.441406 C 528.570312 182.425781 528.523438 178.457031 528.296875 174.464844 C 533.386719 174.785156 538.496094 175.085938 543.539062 175.453125 C 543.816406 179.101562 543.953125 182.839844 543.953125 186.535156 " fill-opacity="1" fill-rule="nonzero"/><path fill="#cccccc" d="M 540.8125 562.914062 C 540.90625 580.925781 540.996094 598.933594 541.042969 616.921875 C 539.300781 616.785156 537.625 616.738281 535.90625 616.691406 C 536.527344 493.351562 534.851562 369.941406 534.347656 246.574219 C 534.257812 228.839844 534.027344 211.058594 534.117188 193.324219 C 535.816406 193.324219 537.488281 193.324219 539.140625 193.324219 C 539.4375 316.507812 540.261719 439.6875 540.8125 562.914062 " fill-opacity="1" fill-rule="nonzero"/><path fill="#cccccc" d="M 539.277344 643.285156 C 539.183594 645.691406 539.09375 648.078125 538.957031 650.488281 C 538.269531 650.671875 537.582031 650.855469 536.894531 650.992188 C 536.894531 650.992188 536.894531 650.992188 536.847656 650.992188 C 536.847656 648.421875 536.847656 645.875 536.847656 643.328125 C 537.671875 643.328125 538.453125 643.328125 539.277344 643.285156 " fill-opacity="1" fill-rule="nonzero"/><path fill="#cccccc" d="M 539.140625 167.515625 C 539.140625 167.789062 539.140625 168.066406 539.140625 168.316406 C 537.808594 168.203125 536.480469 168.15625 535.171875 168.066406 C 535.171875 165.792969 535.171875 163.476562 535.128906 161.179688 C 536.386719 161.546875 537.671875 161.960938 538.957031 162.328125 C 539.046875 164.050781 539.09375 165.792969 539.140625 167.515625 " fill-opacity="1" fill-rule="nonzero"/><path fill="#f9b02d" d="M 530.015625 642.78125 C 530.015625 646.105469 530.015625 649.433594 530.015625 652.757812 C 481.324219 665.171875 432.632812 677.652344 384.304688 691.328125 C 385.292969 676.6875 386.253906 662.027344 387.265625 647.34375 C 434.488281 634.839844 481.78125 622.40625 529.050781 609.949219 C 529.050781 612.242188 529.050781 614.46875 529.050781 616.738281 C 526.691406 617.199219 525.820312 619.722656 526.554688 621.535156 C 526.507812 621.625 526.460938 621.671875 526.460938 621.761719 C 526.277344 627.613281 526.09375 633.488281 525.867188 639.316406 C 525.820312 640.621094 526.460938 641.496094 527.289062 642.046875 C 527.332031 642.089844 527.378906 642.089844 527.425781 642.136719 C 527.746094 642.273438 528.019531 642.414062 528.339844 642.503906 C 528.480469 642.503906 528.523438 642.597656 528.640625 642.597656 C 529.097656 642.6875 529.558594 642.734375 530.015625 642.78125 " fill-opacity="1" fill-rule="nonzero"/><path fill="#f9b02d" d="M 529.007812 602.882812 C 480.5 615.660156 431.988281 628.464844 383.480469 641.265625 C 382.058594 641.632812 381.394531 642.597656 381.164062 643.652344 C 380.84375 644.15625 380.617188 644.683594 380.570312 645.371094 C 379.46875 661.292969 378.414062 677.238281 377.382812 693.207031 C 375.457031 693.644531 373.554688 694.101562 371.628906 694.609375 C 370.871094 513.082031 368.441406 331.511719 366.953125 149.917969 C 366.816406 135.347656 366.675781 120.753906 366.492188 106.117188 C 369.773438 107.082031 373.050781 107.976562 376.328125 108.800781 C 376.328125 114.421875 376.328125 120.066406 376.328125 125.664062 C 376.328125 125.894531 376.421875 126.078125 376.421875 126.308594 C 376.054688 127.914062 376.648438 129.863281 378.597656 130.644531 C 380.066406 131.195312 381.53125 131.699219 382.929688 132.25 C 382.886719 144.730469 382.792969 157.210938 382.703125 169.761719 C 382.703125 170.128906 382.792969 170.449219 382.886719 170.773438 C 382.703125 172.261719 383.34375 173.867188 385.222656 174.398438 C 432.308594 188.09375 479.625 200.804688 527.242188 212.574219 C 527.148438 243.25 527.148438 273.96875 527.289062 304.667969 C 527.195312 304.667969 527.105469 304.621094 527.011719 304.621094 C 480.726562 300.285156 434.671875 294.574219 388.777344 287.460938 C 385.476562 286.976562 383.617188 290.671875 384.902344 292.761719 C 381.691406 312.8125 380.066406 332.910156 380.15625 353.261719 C 380.15625 353.558594 380.25 353.789062 380.339844 354.0625 C 380.066406 355.945312 381.074219 358.03125 383.527344 357.988281 C 431.484375 357.4375 479.28125 359.730469 526.964844 364.824219 C 527.195312 364.871094 527.332031 364.777344 527.5625 364.777344 C 527.699219 385.035156 527.835938 405.320312 527.976562 425.601562 C 525.019531 425.644531 522.015625 425.691406 519.035156 425.738281 C 519.082031 424.730469 519.171875 423.71875 519.21875 422.734375 C 519.261719 421.90625 519.035156 421.308594 518.714844 420.804688 C 518.390625 419.910156 517.726562 419.085938 516.445312 418.855469 C 511.699219 417.984375 507.023438 417.707031 502.230469 418.257812 C 500.695312 418.441406 499.6875 419.453125 499.273438 420.621094 C 499.042969 421.082031 498.90625 421.539062 498.859375 422.042969 C 498.675781 423.421875 498.675781 424.683594 498.722656 426.011719 C 493.542969 426.105469 488.339844 426.152344 483.15625 426.242188 C 481.460938 426.242188 480.453125 427.273438 480.039062 428.515625 C 479.832031 428.972656 479.625 429.476562 479.695312 430.027344 C 479.742188 430.257812 479.742188 430.441406 479.742188 430.601562 C 479.191406 431.015625 478.6875 431.613281 478.550781 432.527344 C 478.183594 434.480469 478 436.40625 478.230469 438.355469 C 478.273438 438.722656 478.367188 439 478.457031 439.320312 C 478.734375 440.789062 479.742188 442.140625 481.644531 442.28125 C 486.960938 442.785156 492.304688 443.105469 497.621094 443.425781 C 497.621094 444.964844 497.621094 446.570312 497.761719 448.175781 C 497.851562 448.980469 498.21875 449.574219 498.632812 450.082031 C 498.953125 451 499.640625 451.734375 500.855469 451.984375 C 505.050781 452.949219 509.199219 452.949219 513.394531 451.984375 C 514.082031 451.871094 514.585938 451.527344 514.953125 451.136719 C 515.800781 450.539062 516.351562 449.53125 516.488281 448.40625 C 516.671875 446.9375 516.765625 445.515625 516.765625 444.117188 C 520.546875 444.160156 524.328125 444.160156 528.113281 444.160156 C 528.160156 448.292969 528.160156 452.445312 528.203125 456.597656 C 483.386719 455.863281 438.59375 455.152344 393.773438 454.417969 C 392.535156 454.417969 391.6875 454.96875 391.136719 455.726562 C 389.855469 456.136719 388.824219 457.148438 388.777344 458.867188 C 388.363281 478.070312 383.847656 501.542969 388.730469 520.148438 C 389.027344 521.296875 389.992188 522.28125 391.136719 522.558594 C 410.164062 527.214844 434.578125 522.789062 453.996094 521.9375 C 478.917969 520.835938 503.742188 519.183594 528.570312 517.144531 C 528.640625 532.195312 528.777344 547.175781 528.847656 562.226562 C 528.890625 575.761719 529.007812 589.300781 529.007812 602.882812 " fill-opacity="1" fill-rule="nonzero"/><path fill="#ffcf83" d="M 528.433594 494.703125 C 528.480469 499.914062 528.523438 505.097656 528.523438 510.304688 C 497.761719 512.851562 466.972656 514.710938 436.09375 515.8125 C 420.6875 516.316406 398.976562 522.328125 394.597656 503.011719 C 394.234375 501.359375 394.003906 499.636719 393.820312 497.800781 C 438.683594 495.714844 483.546875 494.660156 528.433594 494.703125 " fill-opacity="1" fill-rule="nonzero"/><path fill="#b77e21" d="M 528.25 463.433594 C 528.296875 471.601562 528.339844 479.722656 528.386719 487.867188 C 483.433594 487.820312 438.5 488.878906 393.546875 490.964844 C 393.589844 481.078125 395.105469 470.042969 395.492188 461.300781 C 439.738281 462.035156 484.003906 462.699219 528.25 463.433594 " fill-opacity="1" fill-rule="nonzero"/><path fill="#4d4d4d" d="M 528.296875 159.230469 C 528.296875 160.675781 528.296875 162.191406 528.339844 163.707031 C 478.640625 155.675781 430.269531 142.78125 383.160156 125.046875 C 383.160156 120.574219 383.160156 116.144531 383.160156 111.671875 C 429.351562 133.925781 479.28125 145.144531 528.296875 159.230469 " fill-opacity="1" fill-rule="nonzero"/><path fill="#cccccc" d="M 528.019531 432.4375 C 528.019531 434.089844 528.066406 435.671875 528.066406 437.324219 C 514.3125 437.417969 500.601562 436.910156 486.871094 435.855469 C 486.871094 434.890625 486.800781 433.996094 486.710938 433.035156 C 500.511719 432.851562 514.265625 432.621094 528.019531 432.4375 " fill-opacity="1" fill-rule="nonzero"/><path fill="#ffcf83" d="M 527.46875 342.636719 C 527.46875 347.777344 527.515625 352.984375 527.515625 358.171875 C 527.332031 358.125 527.148438 357.988281 526.964844 357.988281 C 480.40625 352.984375 433.824219 350.738281 387.035156 351.148438 C 387.035156 343.144531 387.308594 335.113281 387.859375 327.082031 C 434.234375 333.917969 480.726562 339.128906 527.46875 342.636719 " fill-opacity="1" fill-rule="nonzero"/><path fill="#b77e21" d="M 527.289062 311.390625 C 527.332031 319.511719 527.378906 327.632812 527.425781 335.800781 C 481.230469 332.289062 435.222656 327.21875 389.394531 320.476562 C 388.984375 320.429688 388.660156 320.476562 388.316406 320.519531 C 389.027344 311.894531 390.082031 303.335938 391.457031 294.710938 C 436.460938 301.59375 481.644531 307.214844 527.011719 311.4375 C 527.105469 311.4375 527.195312 311.390625 527.289062 311.390625 " fill-opacity="1" fill-rule="nonzero"/><path fill="#f9b02d" d="M 527.289062 193.277344 C 527.242188 197.339844 527.289062 201.445312 527.242188 205.507812 C 481.09375 194.105469 435.175781 181.738281 389.535156 168.523438 C 389.625 157.257812 389.671875 145.96875 389.761719 134.707031 C 432.859375 150.328125 477.035156 161.960938 522.265625 169.578125 C 521.671875 170.128906 521.328125 170.957031 521.371094 172.035156 C 521.714844 177.746094 521.808594 183.390625 521.648438 189.125 C 521.648438 189.675781 521.714844 190.179688 521.921875 190.59375 C 522.175781 191.992188 523.230469 193.277344 525.109375 193.277344 C 525.820312 193.277344 526.554688 193.277344 527.289062 193.277344 " fill-opacity="1" fill-rule="nonzero"/><path fill="#4d4d4d" d="M 512.9375 665.5625 C 512.660156 677.285156 512.386719 688.964844 512.109375 700.640625 C 497.578125 705.230469 483.113281 709.84375 468.578125 714.363281 C 468.761719 701.859375 468.898438 689.375 469.035156 676.917969 C 483.640625 673.085938 498.308594 669.324219 512.9375 665.5625 " fill-opacity="1" fill-rule="nonzero"/><path fill="#cccccc" d="M 512.25 425.09375 C 512.25 425.324219 512.203125 425.601562 512.203125 425.828125 C 509.980469 425.875 507.734375 425.875 505.554688 425.921875 C 505.507812 425.554688 505.464844 425.1875 505.464844 424.820312 C 507.734375 424.730469 510.023438 424.820312 512.25 425.09375 " fill-opacity="1" fill-rule="nonzero"/><path fill="#cccccc" d="M 509.933594 443.933594 C 509.933594 444.484375 509.933594 445.054688 509.886719 445.605469 C 508.097656 445.835938 506.335938 445.835938 504.546875 445.605469 C 504.5 444.964844 504.453125 444.390625 504.453125 443.75 C 506.289062 443.839844 508.097656 443.886719 509.933594 443.933594 " fill-opacity="1" fill-rule="nonzero"/><path fill="#f9b02d" d="M 460.828125 679.03125 C 460.644531 691.695312 460.507812 704.335938 460.371094 716.953125 C 443.613281 722.09375 426.855469 727.253906 410.074219 732.257812 C 409.269531 719.410156 407.804688 706.5625 405.808594 693.804688 C 424.105469 688.734375 442.421875 683.847656 460.828125 679.03125 " fill-opacity="1" fill-rule="nonzero"/><path fill="#f9b02d" d="M 402.027344 734.6875 C 391.984375 737.695312 381.96875 740.699219 371.902344 743.660156 C 371.859375 730.261719 371.765625 716.863281 371.675781 703.464844 C 375.59375 702.316406 379.515625 701.261719 383.390625 700.113281 C 388.273438 699.035156 393.179688 698.070312 398.105469 697.269531 C 400.007812 709.703125 401.292969 722.140625 402.027344 734.6875 " fill-opacity="1" fill-rule="nonzero"/><path fill="#f9b02d" d="M 398.703125 81.5 C 398.703125 89.851562 398.703125 98.179688 398.703125 106.53125 C 391.136719 105.246094 383.617188 103.664062 376.191406 101.757812 C 376.054688 101.414062 375.960938 101.117188 375.734375 100.796875 C 372.683594 96.871094 383.25 97.605469 384.628906 97.492188 C 386.621094 97.375 388.179688 96.597656 389.210938 94.851562 C 390.585938 92.582031 390.359375 89.714844 390.449219 87.167969 C 390.585938 84.230469 390.726562 81.316406 390.863281 78.402344 C 393.5 79.414062 396.089844 80.398438 398.703125 81.5 " fill-opacity="1" fill-rule="nonzero"/><path fill="#f9b02d" d="M 384.167969 75.765625 C 384.03125 78.265625 383.941406 80.765625 383.800781 83.289062 C 383.757812 84.320312 384.121094 90.035156 383.480469 90.929688 C 383.480469 90.539062 378.964844 90.308594 378.597656 90.355469 C 377.152344 90.492188 375.734375 90.816406 374.378906 91.390625 C 370.78125 93.085938 368.808594 96.277344 368.808594 99.695312 C 368.03125 99.464844 367.226562 99.234375 366.449219 99.003906 C 366.402344 89.164062 366.3125 79.320312 366.265625 69.476562 C 372.269531 71.472656 378.253906 73.515625 384.167969 75.765625 " fill-opacity="1" fill-rule="nonzero"/><path fill="#b77e21" d="M 360.695312 702.914062 C 360.785156 715.53125 360.878906 728.128906 360.921875 740.746094 C 354.320312 738.199219 347.671875 735.699219 341.070312 733.128906 C 340.886719 720.417969 340.796875 707.753906 340.65625 695.066406 C 344.164062 696.351562 347.71875 697.613281 351.273438 698.851562 C 354.414062 700.230469 357.554688 701.535156 360.695312 702.914062 " fill-opacity="1" fill-rule="nonzero"/><path fill="#b77e21" d="M 360.257812 657.601562 C 360.394531 669.988281 360.488281 682.449219 360.625 694.835938 C 358.148438 694.011719 355.695312 693.207031 353.289062 692.335938 C 349.1875 690.546875 345.128906 688.78125 341.070312 687.035156 C 340.886719 686.945312 340.703125 686.992188 340.566406 686.945312 C 338.847656 518.589844 340.566406 350.117188 340.886719 181.738281 C 340.980469 158.359375 340.246094 134.75 340.933594 111.328125 C 345.816406 109.308594 350.628906 107.3125 355.511719 105.339844 C 356.246094 289.433594 358.746094 473.503906 360.257812 657.601562 " fill-opacity="1" fill-rule="nonzero"/><path fill="#b77e21" d="M 355.46875 97.996094 C 350.90625 99.878906 346.367188 101.78125 341.757812 103.664062 C 341.621094 102.148438 341.484375 100.703125 341.34375 99.234375 C 341.390625 98.914062 341.390625 98.640625 341.390625 98.316406 C 341.390625 97.996094 341.300781 97.722656 341.253906 97.445312 C 340.933594 92.304688 340.839844 87.121094 340.980469 81.914062 C 340.980469 81.914062 341.023438 81.867188 341.023438 81.820312 C 342.355469 78.816406 343.660156 75.765625 345.035156 72.714844 C 345.082031 72.574219 345.082031 72.484375 345.175781 72.347656 C 348.542969 71.152344 351.914062 69.960938 355.328125 68.789062 C 355.328125 78.539062 355.421875 88.292969 355.46875 97.996094 " fill-opacity="1" fill-rule="nonzero"/><path fill="#b77e21" d="M 334.515625 99.144531 C 334.375 101.644531 334.332031 104.214844 334.191406 106.761719 C 324.910156 110.59375 315.601562 114.46875 306.363281 118.347656 C 304.460938 117.292969 301.664062 117.980469 301.34375 120.480469 C 292.058594 124.449219 282.726562 128.417969 273.421875 132.433594 C 272.480469 132.433594 271.5625 132.847656 270.96875 133.511719 C 214.894531 157.902344 159.460938 183.710938 104.695312 211.015625 C 104.855469 207.734375 105.0625 204.542969 105.382812 201.355469 C 105.65625 201.21875 105.933594 201.171875 106.207031 201.035156 C 182.179688 162.421875 258.128906 123.808594 334.054688 85.238281 C 334.011719 89.851562 334.191406 94.484375 334.515625 99.144531 " fill-opacity="1" fill-rule="nonzero"/><path fill="#b77e21" d="M 334.101562 652.804688 C 334.101562 663.65625 334.054688 674.507812 334.054688 685.363281 C 327.363281 682.859375 320.667969 680.335938 314.019531 677.699219 C 314.019531 677.5625 314.066406 677.46875 314.066406 677.285156 C 310.695312 614.285156 312.597656 550.546875 311.957031 487.453125 C 310.96875 389.167969 310.054688 290.878906 309 192.589844 C 308.769531 170.128906 309.273438 147.414062 308.21875 124.953125 C 316.746094 121.351562 325.320312 117.75 333.871094 114.238281 C 331.050781 181.234375 333.964844 249.167969 333.917969 316.140625 C 333.917969 428.332031 333.964844 540.566406 334.101562 652.804688 " fill-opacity="1" fill-rule="nonzero"/><path fill="#b77e21" d="M 334.054688 692.65625 C 334.054688 705.277344 334.101562 717.871094 334.238281 730.492188 C 255.46875 699.769531 178.191406 665.402344 102.515625 627.636719 C 102.242188 619.261719 103.066406 611.050781 104.992188 602.882812 C 105.75 603.066406 106.574219 603.066406 107.308594 602.835938 C 114.828125 605.726562 122.484375 608.226562 129.246094 611.003906 C 160.289062 623.621094 191.394531 635.988281 222.550781 648.308594 C 259.574219 662.878906 296.574219 678.753906 334.054688 692.65625 " fill-opacity="1" fill-rule="nonzero"/><path fill="#b77e21" d="M 307.140625 675.015625 C 299.300781 671.917969 291.460938 668.773438 283.621094 665.5625 C 283.621094 665.445312 283.714844 665.308594 283.667969 665.125 C 280.800781 605.128906 282.175781 544.492188 281.398438 484.449219 C 280.273438 390.910156 279.035156 297.347656 277.890625 203.765625 C 277.660156 181.96875 278.027344 160.058594 277.109375 138.261719 C 285.226562 134.707031 293.386719 131.242188 301.570312 127.777344 C 304.503906 188.574219 302.761719 250.085938 303.359375 310.953125 C 304.367188 409.242188 305.261719 507.53125 306.316406 605.796875 C 306.59375 628.785156 306.042969 651.980469 307.140625 675.015625 " fill-opacity="1" fill-rule="nonzero"/><path fill="#b77e21" d="M 276.789062 662.785156 C 268.972656 659.597656 261.132812 656.40625 253.292969 653.265625 C 253.292969 653.171875 253.339844 653.082031 253.339844 652.988281 C 250.886719 595.953125 251.800781 538.480469 250.886719 481.445312 C 249.507812 392.585938 248.019531 303.796875 246.828125 214.984375 C 246.550781 194.011719 246.828125 172.90625 246.003906 151.933594 C 254.117188 148.289062 262.277344 144.730469 270.417969 141.175781 C 272.984375 199.382812 271.746094 258.160156 272.480469 316.414062 C 273.648438 409.953125 274.839844 503.515625 275.988281 597.101562 C 276.261719 618.941406 275.851562 640.96875 276.789062 662.785156 " fill-opacity="1" fill-rule="nonzero"/><path fill="#b77e21" d="M 245.589844 588.359375 C 245.863281 609.054688 245.636719 629.839844 246.414062 650.488281 C 240.5 648.078125 234.609375 645.738281 228.695312 643.421875 C 226.792969 642.640625 224.820312 641.863281 222.917969 641.082031 C 222.917969 640.988281 222.964844 640.921875 222.964844 640.828125 C 220.992188 586.796875 221.359375 532.46875 220.371094 478.390625 C 218.769531 394.328125 216.980469 310.265625 215.71875 226.15625 C 215.445312 206.148438 215.582031 185.9375 214.894531 165.929688 C 223.007812 162.238281 231.125 158.589844 239.261719 154.941406 C 241.441406 210.417969 240.683594 266.351562 241.53125 321.921875 C 242.90625 410.734375 244.421875 499.546875 245.589844 588.359375 " fill-opacity="1" fill-rule="nonzero"/><path fill="#b77e21" d="M 216.085938 638.398438 C 208.199219 635.300781 200.359375 632.203125 192.542969 629.058594 C 192.542969 628.921875 192.585938 628.828125 192.585938 628.648438 C 191.121094 577.644531 190.984375 526.390625 189.835938 475.386719 C 188.070312 396.050781 185.960938 316.691406 184.65625 237.375 C 184.335938 218.355469 184.335938 199.3125 183.785156 180.292969 C 191.898438 176.507812 199.992188 172.769531 208.152344 169.027344 C 209.917969 221.726562 209.667969 274.703125 210.605469 327.402344 C 212.210938 411.46875 213.976562 495.578125 215.261719 579.640625 C 215.535156 599.1875 215.445312 618.851562 216.085938 638.398438 " fill-opacity="1" fill-rule="nonzero"/><path fill="#b77e21" d="M 185.6875 626.375 C 177.871094 623.230469 169.984375 620.066406 162.144531 616.921875 C 162.144531 616.738281 162.234375 616.671875 162.234375 616.53125 C 161.226562 568.511719 160.5625 520.378906 159.277344 472.382812 C 157.328125 397.746094 154.945312 323.160156 153.546875 248.527344 C 153.226562 230.722656 153.089844 212.894531 152.722656 195.070312 C 160.769531 191.191406 168.882812 187.359375 177.046875 183.527344 C 178.398438 233.222656 178.605469 283.191406 179.726562 332.910156 C 181.46875 412.246094 183.554688 491.5625 184.886719 570.921875 C 185.207031 589.390625 185.253906 607.90625 185.6875 626.375 " fill-opacity="1" fill-rule="nonzero"/><path fill="#b77e21" d="M 154.53125 562.226562 C 154.855469 579.503906 154.992188 596.871094 155.359375 614.191406 C 148.9375 611.601562 142.476562 609.054688 136.054688 606.390625 C 134.679688 605.839844 133.214844 605.3125 131.769531 604.761719 C 131.816406 604.625 131.859375 604.488281 131.859375 604.351562 C 130.300781 472.953125 123.195312 341.628906 121.613281 210.234375 C 129.707031 206.242188 137.820312 202.273438 145.9375 198.347656 C 146.875 244.96875 147.5625 291.75 148.800781 338.394531 C 150.75 413.003906 153.132812 487.59375 154.53125 562.226562 " fill-opacity="1" fill-rule="nonzero"/><path fill="#b77e21" d="M 114.875 213.539062 C 116.5 343.144531 123.425781 472.65625 124.984375 602.261719 C 119.640625 600.335938 114.140625 598.429688 108.753906 596.273438 C 106.804688 575.855469 107.90625 554.699219 107.582031 534.328125 C 106.941406 489.0625 106.484375 443.75 106.070312 398.4375 C 105.703125 353.765625 105.335938 309.074219 105.246094 264.355469 C 105.246094 249.488281 104.257812 234.003906 104.488281 218.769531 C 107.949219 217.023438 111.410156 215.257812 114.875 213.539062 " fill-opacity="1" fill-rule="nonzero"/><path fill="#b77e21" d="M 100.75 532.5625 C 101.027344 552.476562 99.972656 573.171875 101.621094 593.222656 C 97.152344 591.132812 92.820312 588.839844 88.992188 586.15625 C 88.898438 586.109375 88.808594 586.109375 88.714844 586.0625 C 88.488281 549.242188 86.402344 512.164062 85.667969 475.570312 C 84.246094 400.019531 82.800781 324.445312 81.472656 248.894531 C 81.335938 242.789062 81.152344 236.6875 80.921875 230.585938 C 86.492188 227.738281 92.039062 224.964844 97.65625 222.1875 C 97.609375 235.722656 98.414062 249.398438 98.414062 262.566406 C 98.503906 307.855469 98.828125 353.167969 99.238281 398.4375 C 99.605469 443.152344 100.0625 487.820312 100.75 532.5625 " fill-opacity="1" fill-rule="nonzero"/><path fill="#b77e21" d="M 98.6875 200.160156 C 98.183594 204.910156 97.886719 209.683594 97.726562 214.476562 C 92.039062 217.347656 86.355469 220.191406 80.691406 223.058594 C 80.507812 216.175781 80.417969 209.292969 80.464844 202.457031 C 80.554688 202.410156 80.648438 202.410156 80.738281 202.410156 C 85.898438 200.574219 91.054688 198.808594 96.234375 196.972656 C 96.328125 197.109375 96.464844 197.246094 96.558594 197.386719 C 97.0625 198.488281 97.773438 199.425781 98.6875 200.160156 " fill-opacity="1" fill-rule="nonzero"/><path fill="#b77e21" d="M 98.78125 599.28125 C 96.695312 607.492188 95.6875 615.84375 95.640625 624.21875 C 94.402344 623.621094 93.234375 623.027344 91.996094 622.453125 C 91.261719 622.085938 90.550781 621.855469 89.863281 621.761719 C 89.726562 621.578125 89.585938 621.351562 89.449219 621.167969 C 89.039062 620.707031 88.625 620.203125 88.257812 619.765625 C 88.53125 611.234375 88.671875 602.675781 88.671875 594.046875 C 91.855469 596 95.226562 597.742188 98.78125 599.28125 " fill-opacity="1" fill-rule="nonzero"/></svg>