<svg xmlns="http://www.w3.org/2000/svg" xmlns:xlink="http://www.w3.org/1999/xlink" width="1080" zoomAndPan="magnify" viewBox="0 0 810 809.999993" height="1080" preserveAspectRatio="xMidYMid meet" version="1.0"><path fill="#f7f7f7" d="M 810 405 C 810 452.359375 801.882812 497.742188 786.996094 540 L 231.28125 540 L 231.28125 270 L 786.996094 270 C 801.882812 312.257812 810 357.640625 810 405 Z M 810 405 " fill-opacity="1" fill-rule="nonzero"/><path fill="#000000" d="M 786.996094 540 C 776.171875 570.707031 761.703125 599.746094 744.113281 626.601562 C 671.773438 737.035156 546.972656 810 405 810 C 342.859375 810 283.949219 795.949219 231.28125 770.96875 L 231.28125 540 Z M 786.996094 540 " fill-opacity="1" fill-rule="nonzero"/><path fill="#006f2e" d="M 786.996094 270 L 231.28125 270 L 231.28125 39.03125 C 283.949219 14.050781 342.859375 0 405 0 C 546.871094 0 671.773438 72.964844 744.113281 183.398438 C 761.601562 210.253906 776.066406 239.292969 786.996094 270 Z M 786.996094 270 " fill-opacity="1" fill-rule="nonzero"/><path fill="#f70000" d="M 231.28125 39.03125 L 231.28125 770.96875 C 189.644531 751.191406 151.863281 724.441406 119.492188 692.277344 C 99.507812 672.398438 81.5 650.332031 65.886719 626.601562 C 24.253906 562.898438 0 486.8125 0 405 C 0 323.1875 24.253906 247.101562 65.886719 183.398438 C 81.394531 159.667969 99.402344 137.601562 119.492188 117.617188 C 151.863281 85.558594 189.644531 58.808594 231.28125 39.03125 Z M 231.28125 39.03125 " fill-opacity="1" fill-rule="nonzero"/></svg>