<svg xmlns="http://www.w3.org/2000/svg" xmlns:xlink="http://www.w3.org/1999/xlink" width="1800" zoomAndPan="magnify" viewBox="0 0 1350 809.999993" height="1080" preserveAspectRatio="xMidYMid meet" version="1.0"><defs><g/><clipPath id="683e73a120"><path d="M 89.839844 291 L 374.839844 291 L 374.839844 535.972656 L 89.839844 535.972656 Z M 89.839844 291 " clip-rule="nonzero"/></clipPath></defs><g clip-path="url(#683e73a120)"><path fill="#000000" d="M 232.332031 291.082031 L 342.113281 332.855469 L 225.125 374.996094 L 120.902344 333.507812 Z M 106.121094 341.878906 L 215.640625 385.476562 L 200.382812 413.601562 L 89.925781 371.042969 Z M 108.296875 393.96875 L 198.921875 428.058594 C 199.691406 428.359375 201.582031 428.496094 202.359375 428.496094 C 204.734375 428.496094 209.414062 427.21875 210.601562 425.042969 L 222.21875 408.15625 L 222.21875 535.660156 L 108.296875 492.082031 Z M 345.636719 491.882812 L 231.714844 536.011719 L 231.714844 403.210938 L 249.097656 428.257812 C 250.347656 430.074219 252.390625 431.101562 254.5 431.101562 C 255.304688 431.101562 253.539062 430.964844 254.308594 430.671875 L 345.617188 394.5 Z M 256.949219 416.417969 L 235.386719 385.382812 L 358.179688 341.175781 L 374.761719 371.042969 Z M 256.949219 416.417969 " fill-opacity="1" fill-rule="nonzero"/></g><g fill="#000000" fill-opacity="1"><g transform="translate(481.652334, 485.624996)"><g><path d="M 106.890625 -57.40625 L 106.890625 0 L 53.5625 0 L 53.5625 -58.078125 L -6.109375 -158.1875 L 50.171875 -158.1875 L 82.484375 -103.5 L 115.03125 -158.1875 L 166.546875 -158.1875 Z M 106.890625 -57.40625 "/></g></g></g><g fill="#000000" fill-opacity="1"><g transform="translate(642.099638, 485.624996)"><g><path d="M 142.828125 -61.921875 C 142.828125 -61.171875 142.597656 -57.175781 142.140625 -49.9375 L 56.265625 -49.9375 C 58.078125 -45.269531 61.09375 -41.691406 65.3125 -39.203125 C 69.53125 -36.722656 74.800781 -35.484375 81.125 -35.484375 C 86.550781 -35.484375 91.109375 -36.160156 94.796875 -37.515625 C 98.492188 -38.867188 102.523438 -41.203125 106.890625 -44.515625 L 133.5625 -17.625 C 121.507812 -4.363281 103.503906 2.265625 79.546875 2.265625 C 64.628906 2.265625 51.519531 -0.484375 40.21875 -5.984375 C 28.925781 -11.484375 20.191406 -19.128906 14.015625 -28.921875 C 7.835938 -38.710938 4.75 -49.710938 4.75 -61.921875 C 4.75 -74.273438 7.796875 -85.3125 13.890625 -95.03125 C 19.992188 -104.75 28.359375 -112.316406 38.984375 -117.734375 C 49.609375 -123.160156 61.546875 -125.875 74.796875 -125.875 C 87.304688 -125.875 98.71875 -123.382812 109.03125 -118.40625 C 119.351562 -113.4375 127.566406 -106.128906 133.671875 -96.484375 C 139.773438 -86.847656 142.828125 -75.328125 142.828125 -61.921875 Z M 75.25 -91.078125 C 69.976562 -91.078125 65.609375 -89.644531 62.140625 -86.78125 C 58.679688 -83.914062 56.421875 -79.847656 55.359375 -74.578125 L 95.140625 -74.578125 C 94.085938 -79.703125 91.828125 -83.734375 88.359375 -86.671875 C 84.890625 -89.609375 80.519531 -91.078125 75.25 -91.078125 Z M 75.25 -91.078125 "/></g></g></g><g fill="#000000" fill-opacity="1"><g transform="translate(789.665978, 485.624996)"><g><path d="M 11.296875 -167.6875 L 62.375 -167.6875 L 62.375 0 L 11.296875 0 Z M 11.296875 -167.6875 "/></g></g></g><g fill="#000000" fill-opacity="1"><g transform="translate(863.343724, 485.624996)"><g><path d="M 18.53125 -167.6875 L 46.78125 -167.6875 L 46.78125 0 L 18.53125 0 Z M 18.53125 -167.6875 "/></g></g></g><g fill="#000000" fill-opacity="1"><g transform="translate(928.664034, 485.624996)"><g><path d="M 70.953125 1.125 C 59.503906 1.125 49.1875 -1.472656 40 -6.671875 C 30.8125 -11.867188 23.578125 -19.0625 18.296875 -28.25 C 13.023438 -37.4375 10.390625 -47.832031 10.390625 -59.4375 C 10.390625 -71.03125 13.023438 -81.421875 18.296875 -90.609375 C 23.578125 -99.804688 30.8125 -106.960938 40 -112.078125 C 49.1875 -117.203125 59.503906 -119.765625 70.953125 -119.765625 C 82.410156 -119.765625 92.734375 -117.203125 101.921875 -112.078125 C 111.109375 -106.960938 118.300781 -99.804688 123.5 -90.609375 C 128.695312 -81.421875 131.296875 -71.03125 131.296875 -59.4375 C 131.296875 -47.832031 128.695312 -37.4375 123.5 -28.25 C 118.300781 -19.0625 111.109375 -11.867188 101.921875 -6.671875 C 92.734375 -1.472656 82.410156 1.125 70.953125 1.125 Z M 70.953125 -13.109375 C 79.390625 -13.109375 86.960938 -15.023438 93.671875 -18.859375 C 100.378906 -22.703125 105.613281 -28.164062 109.375 -35.25 C 113.144531 -42.332031 115.03125 -50.394531 115.03125 -59.4375 C 115.03125 -68.476562 113.144531 -76.535156 109.375 -83.609375 C 105.613281 -90.691406 100.378906 -96.15625 93.671875 -100 C 86.960938 -103.84375 79.390625 -105.765625 70.953125 -105.765625 C 62.515625 -105.765625 54.941406 -103.84375 48.234375 -100 C 41.535156 -96.15625 36.265625 -90.691406 32.421875 -83.609375 C 28.585938 -76.535156 26.671875 -68.476562 26.671875 -59.4375 C 26.671875 -50.394531 28.585938 -42.332031 32.421875 -35.25 C 36.265625 -28.164062 41.535156 -22.703125 48.234375 -18.859375 C 54.941406 -15.023438 62.515625 -13.109375 70.953125 -13.109375 Z M 70.953125 -13.109375 "/></g></g></g><g fill="#000000" fill-opacity="1"><g transform="translate(1070.354806, 485.624996)"><g><path d="M 196.828125 -118.875 L 151.859375 0 L 136.71875 0 L 99.203125 -97.40625 L 61.6875 0 L 46.546875 0 L 1.8125 -118.875 L 17.171875 -118.875 L 54.46875 -17.859375 L 92.65625 -118.875 L 106.4375 -118.875 L 144.40625 -17.859375 L 182.140625 -118.875 Z M 196.828125 -118.875 "/></g></g></g></svg>